G04 #@! TF.GenerationSoftware,KiCad,Pcbnew,(5.0.0)*
G04 #@! TF.CreationDate,2018-11-23T00:32:49+07:00*
G04 #@! TF.ProjectId,ext_module,6578745F6D6F64756C652E6B69636164,rev?*
G04 #@! TF.SameCoordinates,Original*
G04 #@! TF.FileFunction,Soldermask,Bot*
G04 #@! TF.FilePolarity,Negative*
%FSLAX46Y46*%
G04 Gerber Fmt 4.6, Leading zero omitted, Abs format (unit mm)*
G04 Created by KiCad (PCBNEW (5.0.0)) date 11/23/18 00:32:49*
%MOMM*%
%LPD*%
G01*
G04 APERTURE LIST*
%ADD10C,0.150000*%
%ADD11C,0.100000*%
G04 APERTURE END LIST*
D10*
X21000000Y-23000000D02*
X21000000Y-75000000D01*
X133000000Y-23000000D02*
X21000000Y-23000000D01*
X133000000Y-45000000D02*
X133000000Y-23000000D01*
X98000000Y-45000000D02*
X133000000Y-45000000D01*
X98000000Y-75000000D02*
X98000000Y-45000000D01*
X81000000Y-75000000D02*
X98000000Y-75000000D01*
X81000000Y-45000000D02*
X81000000Y-75000000D01*
X38000000Y-45000000D02*
X81000000Y-45000000D01*
X38000000Y-75000000D02*
X38000000Y-45000000D01*
X21000000Y-75000000D02*
X38000000Y-75000000D01*
D11*
G36*
X35053707Y-62457596D02*
X35130836Y-62465193D01*
X35262787Y-62505220D01*
X35328763Y-62525233D01*
X35511172Y-62622733D01*
X35671054Y-62753946D01*
X35802267Y-62913828D01*
X35899767Y-63096237D01*
X35899767Y-63096238D01*
X35959807Y-63294164D01*
X35980080Y-63500000D01*
X35959807Y-63705836D01*
X35919780Y-63837787D01*
X35899767Y-63903763D01*
X35802267Y-64086172D01*
X35671054Y-64246054D01*
X35511172Y-64377267D01*
X35328763Y-64474767D01*
X35262787Y-64494780D01*
X35130836Y-64534807D01*
X35053707Y-64542403D01*
X34976580Y-64550000D01*
X34873420Y-64550000D01*
X34796293Y-64542403D01*
X34719164Y-64534807D01*
X34587213Y-64494780D01*
X34521237Y-64474767D01*
X34338828Y-64377267D01*
X34178946Y-64246054D01*
X34047733Y-64086172D01*
X33950233Y-63903763D01*
X33930220Y-63837787D01*
X33890193Y-63705836D01*
X33869920Y-63500000D01*
X33890193Y-63294164D01*
X33950233Y-63096238D01*
X33950233Y-63096237D01*
X34047733Y-62913828D01*
X34178946Y-62753946D01*
X34338828Y-62622733D01*
X34521237Y-62525233D01*
X34587213Y-62505220D01*
X34719164Y-62465193D01*
X34796293Y-62457596D01*
X34873420Y-62450000D01*
X34976580Y-62450000D01*
X35053707Y-62457596D01*
X35053707Y-62457596D01*
G37*
G36*
X95124707Y-62457596D02*
X95201836Y-62465193D01*
X95333787Y-62505220D01*
X95399763Y-62525233D01*
X95582172Y-62622733D01*
X95742054Y-62753946D01*
X95873267Y-62913828D01*
X95970767Y-63096237D01*
X95970767Y-63096238D01*
X96030807Y-63294164D01*
X96051080Y-63500000D01*
X96030807Y-63705836D01*
X95990780Y-63837787D01*
X95970767Y-63903763D01*
X95873267Y-64086172D01*
X95742054Y-64246054D01*
X95582172Y-64377267D01*
X95399763Y-64474767D01*
X95333787Y-64494780D01*
X95201836Y-64534807D01*
X95124707Y-64542403D01*
X95047580Y-64550000D01*
X94944420Y-64550000D01*
X94867293Y-64542403D01*
X94790164Y-64534807D01*
X94658213Y-64494780D01*
X94592237Y-64474767D01*
X94409828Y-64377267D01*
X94249946Y-64246054D01*
X94118733Y-64086172D01*
X94021233Y-63903763D01*
X94001220Y-63837787D01*
X93961193Y-63705836D01*
X93940920Y-63500000D01*
X93961193Y-63294164D01*
X94021233Y-63096238D01*
X94021233Y-63096237D01*
X94118733Y-62913828D01*
X94249946Y-62753946D01*
X94409828Y-62622733D01*
X94592237Y-62525233D01*
X94658213Y-62505220D01*
X94790164Y-62465193D01*
X94867293Y-62457596D01*
X94944420Y-62450000D01*
X95047580Y-62450000D01*
X95124707Y-62457596D01*
X95124707Y-62457596D01*
G37*
G36*
X83821707Y-62457596D02*
X83898836Y-62465193D01*
X84030787Y-62505220D01*
X84096763Y-62525233D01*
X84279172Y-62622733D01*
X84439054Y-62753946D01*
X84570267Y-62913828D01*
X84667767Y-63096237D01*
X84667767Y-63096238D01*
X84727807Y-63294164D01*
X84748080Y-63500000D01*
X84727807Y-63705836D01*
X84687780Y-63837787D01*
X84667767Y-63903763D01*
X84570267Y-64086172D01*
X84439054Y-64246054D01*
X84279172Y-64377267D01*
X84096763Y-64474767D01*
X84030787Y-64494780D01*
X83898836Y-64534807D01*
X83821707Y-64542403D01*
X83744580Y-64550000D01*
X83641420Y-64550000D01*
X83564293Y-64542403D01*
X83487164Y-64534807D01*
X83355213Y-64494780D01*
X83289237Y-64474767D01*
X83106828Y-64377267D01*
X82946946Y-64246054D01*
X82815733Y-64086172D01*
X82718233Y-63903763D01*
X82698220Y-63837787D01*
X82658193Y-63705836D01*
X82637920Y-63500000D01*
X82658193Y-63294164D01*
X82718233Y-63096238D01*
X82718233Y-63096237D01*
X82815733Y-62913828D01*
X82946946Y-62753946D01*
X83106828Y-62622733D01*
X83289237Y-62525233D01*
X83355213Y-62505220D01*
X83487164Y-62465193D01*
X83564293Y-62457596D01*
X83641420Y-62450000D01*
X83744580Y-62450000D01*
X83821707Y-62457596D01*
X83821707Y-62457596D01*
G37*
G36*
X95124707Y-59917596D02*
X95201836Y-59925193D01*
X95333787Y-59965220D01*
X95399763Y-59985233D01*
X95582172Y-60082733D01*
X95742054Y-60213946D01*
X95873267Y-60373828D01*
X95970767Y-60556237D01*
X95970767Y-60556238D01*
X96030807Y-60754164D01*
X96051080Y-60960000D01*
X96030807Y-61165836D01*
X95990780Y-61297787D01*
X95970767Y-61363763D01*
X95873267Y-61546172D01*
X95742054Y-61706054D01*
X95582172Y-61837267D01*
X95399763Y-61934767D01*
X95333787Y-61954780D01*
X95201836Y-61994807D01*
X95124707Y-62002403D01*
X95047580Y-62010000D01*
X94944420Y-62010000D01*
X94867293Y-62002403D01*
X94790164Y-61994807D01*
X94658213Y-61954780D01*
X94592237Y-61934767D01*
X94409828Y-61837267D01*
X94249946Y-61706054D01*
X94118733Y-61546172D01*
X94021233Y-61363763D01*
X94001220Y-61297787D01*
X93961193Y-61165836D01*
X93940920Y-60960000D01*
X93961193Y-60754164D01*
X94021233Y-60556238D01*
X94021233Y-60556237D01*
X94118733Y-60373828D01*
X94249946Y-60213946D01*
X94409828Y-60082733D01*
X94592237Y-59985233D01*
X94658213Y-59965220D01*
X94790164Y-59925193D01*
X94867293Y-59917596D01*
X94944420Y-59910000D01*
X95047580Y-59910000D01*
X95124707Y-59917596D01*
X95124707Y-59917596D01*
G37*
G36*
X35053707Y-59917596D02*
X35130836Y-59925193D01*
X35262787Y-59965220D01*
X35328763Y-59985233D01*
X35511172Y-60082733D01*
X35671054Y-60213946D01*
X35802267Y-60373828D01*
X35899767Y-60556237D01*
X35899767Y-60556238D01*
X35959807Y-60754164D01*
X35980080Y-60960000D01*
X35959807Y-61165836D01*
X35919780Y-61297787D01*
X35899767Y-61363763D01*
X35802267Y-61546172D01*
X35671054Y-61706054D01*
X35511172Y-61837267D01*
X35328763Y-61934767D01*
X35262787Y-61954780D01*
X35130836Y-61994807D01*
X35053707Y-62002403D01*
X34976580Y-62010000D01*
X34873420Y-62010000D01*
X34796293Y-62002403D01*
X34719164Y-61994807D01*
X34587213Y-61954780D01*
X34521237Y-61934767D01*
X34338828Y-61837267D01*
X34178946Y-61706054D01*
X34047733Y-61546172D01*
X33950233Y-61363763D01*
X33930220Y-61297787D01*
X33890193Y-61165836D01*
X33869920Y-60960000D01*
X33890193Y-60754164D01*
X33950233Y-60556238D01*
X33950233Y-60556237D01*
X34047733Y-60373828D01*
X34178946Y-60213946D01*
X34338828Y-60082733D01*
X34521237Y-59985233D01*
X34587213Y-59965220D01*
X34719164Y-59925193D01*
X34796293Y-59917596D01*
X34873420Y-59910000D01*
X34976580Y-59910000D01*
X35053707Y-59917596D01*
X35053707Y-59917596D01*
G37*
G36*
X83821707Y-59917596D02*
X83898836Y-59925193D01*
X84030787Y-59965220D01*
X84096763Y-59985233D01*
X84279172Y-60082733D01*
X84439054Y-60213946D01*
X84570267Y-60373828D01*
X84667767Y-60556237D01*
X84667767Y-60556238D01*
X84727807Y-60754164D01*
X84748080Y-60960000D01*
X84727807Y-61165836D01*
X84687780Y-61297787D01*
X84667767Y-61363763D01*
X84570267Y-61546172D01*
X84439054Y-61706054D01*
X84279172Y-61837267D01*
X84096763Y-61934767D01*
X84030787Y-61954780D01*
X83898836Y-61994807D01*
X83821707Y-62002403D01*
X83744580Y-62010000D01*
X83641420Y-62010000D01*
X83564293Y-62002403D01*
X83487164Y-61994807D01*
X83355213Y-61954780D01*
X83289237Y-61934767D01*
X83106828Y-61837267D01*
X82946946Y-61706054D01*
X82815733Y-61546172D01*
X82718233Y-61363763D01*
X82698220Y-61297787D01*
X82658193Y-61165836D01*
X82637920Y-60960000D01*
X82658193Y-60754164D01*
X82718233Y-60556238D01*
X82718233Y-60556237D01*
X82815733Y-60373828D01*
X82946946Y-60213946D01*
X83106828Y-60082733D01*
X83289237Y-59985233D01*
X83355213Y-59965220D01*
X83487164Y-59925193D01*
X83564293Y-59917596D01*
X83641420Y-59910000D01*
X83744580Y-59910000D01*
X83821707Y-59917596D01*
X83821707Y-59917596D01*
G37*
G36*
X95124707Y-57377596D02*
X95201836Y-57385193D01*
X95333787Y-57425220D01*
X95399763Y-57445233D01*
X95582172Y-57542733D01*
X95742054Y-57673946D01*
X95873267Y-57833828D01*
X95970767Y-58016237D01*
X95970767Y-58016238D01*
X96030807Y-58214164D01*
X96051080Y-58420000D01*
X96030807Y-58625836D01*
X95990780Y-58757787D01*
X95970767Y-58823763D01*
X95873267Y-59006172D01*
X95742054Y-59166054D01*
X95582172Y-59297267D01*
X95399763Y-59394767D01*
X95333787Y-59414780D01*
X95201836Y-59454807D01*
X95124707Y-59462403D01*
X95047580Y-59470000D01*
X94944420Y-59470000D01*
X94867293Y-59462403D01*
X94790164Y-59454807D01*
X94658213Y-59414780D01*
X94592237Y-59394767D01*
X94409828Y-59297267D01*
X94249946Y-59166054D01*
X94118733Y-59006172D01*
X94021233Y-58823763D01*
X94001220Y-58757787D01*
X93961193Y-58625836D01*
X93940920Y-58420000D01*
X93961193Y-58214164D01*
X94021233Y-58016238D01*
X94021233Y-58016237D01*
X94118733Y-57833828D01*
X94249946Y-57673946D01*
X94409828Y-57542733D01*
X94592237Y-57445233D01*
X94658213Y-57425220D01*
X94790164Y-57385193D01*
X94867293Y-57377596D01*
X94944420Y-57370000D01*
X95047580Y-57370000D01*
X95124707Y-57377596D01*
X95124707Y-57377596D01*
G37*
G36*
X35053707Y-57377596D02*
X35130836Y-57385193D01*
X35262787Y-57425220D01*
X35328763Y-57445233D01*
X35511172Y-57542733D01*
X35671054Y-57673946D01*
X35802267Y-57833828D01*
X35899767Y-58016237D01*
X35899767Y-58016238D01*
X35959807Y-58214164D01*
X35980080Y-58420000D01*
X35959807Y-58625836D01*
X35919780Y-58757787D01*
X35899767Y-58823763D01*
X35802267Y-59006172D01*
X35671054Y-59166054D01*
X35511172Y-59297267D01*
X35328763Y-59394767D01*
X35262787Y-59414780D01*
X35130836Y-59454807D01*
X35053707Y-59462403D01*
X34976580Y-59470000D01*
X34873420Y-59470000D01*
X34796293Y-59462403D01*
X34719164Y-59454807D01*
X34587213Y-59414780D01*
X34521237Y-59394767D01*
X34338828Y-59297267D01*
X34178946Y-59166054D01*
X34047733Y-59006172D01*
X33950233Y-58823763D01*
X33930220Y-58757787D01*
X33890193Y-58625836D01*
X33869920Y-58420000D01*
X33890193Y-58214164D01*
X33950233Y-58016238D01*
X33950233Y-58016237D01*
X34047733Y-57833828D01*
X34178946Y-57673946D01*
X34338828Y-57542733D01*
X34521237Y-57445233D01*
X34587213Y-57425220D01*
X34719164Y-57385193D01*
X34796293Y-57377596D01*
X34873420Y-57370000D01*
X34976580Y-57370000D01*
X35053707Y-57377596D01*
X35053707Y-57377596D01*
G37*
G36*
X83821707Y-57377596D02*
X83898836Y-57385193D01*
X84030787Y-57425220D01*
X84096763Y-57445233D01*
X84279172Y-57542733D01*
X84439054Y-57673946D01*
X84570267Y-57833828D01*
X84667767Y-58016237D01*
X84667767Y-58016238D01*
X84727807Y-58214164D01*
X84748080Y-58420000D01*
X84727807Y-58625836D01*
X84687780Y-58757787D01*
X84667767Y-58823763D01*
X84570267Y-59006172D01*
X84439054Y-59166054D01*
X84279172Y-59297267D01*
X84096763Y-59394767D01*
X84030787Y-59414780D01*
X83898836Y-59454807D01*
X83821707Y-59462403D01*
X83744580Y-59470000D01*
X83641420Y-59470000D01*
X83564293Y-59462403D01*
X83487164Y-59454807D01*
X83355213Y-59414780D01*
X83289237Y-59394767D01*
X83106828Y-59297267D01*
X82946946Y-59166054D01*
X82815733Y-59006172D01*
X82718233Y-58823763D01*
X82698220Y-58757787D01*
X82658193Y-58625836D01*
X82637920Y-58420000D01*
X82658193Y-58214164D01*
X82718233Y-58016238D01*
X82718233Y-58016237D01*
X82815733Y-57833828D01*
X82946946Y-57673946D01*
X83106828Y-57542733D01*
X83289237Y-57445233D01*
X83355213Y-57425220D01*
X83487164Y-57385193D01*
X83564293Y-57377596D01*
X83641420Y-57370000D01*
X83744580Y-57370000D01*
X83821707Y-57377596D01*
X83821707Y-57377596D01*
G37*
G36*
X35975000Y-56930000D02*
X33875000Y-56930000D01*
X33875000Y-54830000D01*
X35975000Y-54830000D01*
X35975000Y-56930000D01*
X35975000Y-56930000D01*
G37*
G36*
X84743000Y-56930000D02*
X82643000Y-56930000D01*
X82643000Y-54830000D01*
X84743000Y-54830000D01*
X84743000Y-56930000D01*
X84743000Y-56930000D01*
G37*
G36*
X96046000Y-56930000D02*
X93946000Y-56930000D01*
X93946000Y-54830000D01*
X96046000Y-54830000D01*
X96046000Y-56930000D01*
X96046000Y-56930000D01*
G37*
G36*
X25097224Y-55515128D02*
X25229175Y-55555155D01*
X25350781Y-55620155D01*
X25457370Y-55707630D01*
X25544845Y-55814219D01*
X25609845Y-55935825D01*
X25649872Y-56067776D01*
X25663387Y-56205000D01*
X25649872Y-56342224D01*
X25609845Y-56474175D01*
X25544845Y-56595781D01*
X25457370Y-56702370D01*
X25350781Y-56789845D01*
X25229175Y-56854845D01*
X25097224Y-56894872D01*
X24994390Y-56905000D01*
X24375610Y-56905000D01*
X24272776Y-56894872D01*
X24140825Y-56854845D01*
X24019219Y-56789845D01*
X23912630Y-56702370D01*
X23825155Y-56595781D01*
X23760155Y-56474175D01*
X23720128Y-56342224D01*
X23706613Y-56205000D01*
X23720128Y-56067776D01*
X23760155Y-55935825D01*
X23825155Y-55814219D01*
X23912630Y-55707630D01*
X24019219Y-55620155D01*
X24140825Y-55555155D01*
X24272776Y-55515128D01*
X24375610Y-55505000D01*
X24994390Y-55505000D01*
X25097224Y-55515128D01*
X25097224Y-55515128D01*
G37*
G36*
X27517322Y-54389767D02*
X27644560Y-54428364D01*
X27761823Y-54491042D01*
X27813214Y-54533218D01*
X27864604Y-54575392D01*
X27864606Y-54575395D01*
X27948958Y-54678176D01*
X28011636Y-54795439D01*
X28050233Y-54922677D01*
X28060000Y-55021841D01*
X28060000Y-55388158D01*
X28050233Y-55487322D01*
X28011636Y-55614561D01*
X27948958Y-55731824D01*
X27864606Y-55834606D01*
X27761824Y-55918958D01*
X27644561Y-55981636D01*
X27517323Y-56020233D01*
X27385000Y-56033266D01*
X27252678Y-56020233D01*
X27125440Y-55981636D01*
X27008177Y-55918958D01*
X26956786Y-55876782D01*
X26905396Y-55834608D01*
X26888663Y-55814219D01*
X26821042Y-55731824D01*
X26758364Y-55614561D01*
X26719767Y-55487323D01*
X26710000Y-55388159D01*
X26710000Y-55021842D01*
X26719767Y-54922678D01*
X26758364Y-54795440D01*
X26821042Y-54678177D01*
X26863218Y-54626786D01*
X26905392Y-54575396D01*
X26925474Y-54558915D01*
X27008176Y-54491042D01*
X27125439Y-54428364D01*
X27252677Y-54389767D01*
X27385000Y-54376734D01*
X27517322Y-54389767D01*
X27517322Y-54389767D01*
G37*
G36*
X27517322Y-49389767D02*
X27644560Y-49428364D01*
X27761823Y-49491042D01*
X27813214Y-49533218D01*
X27864604Y-49575392D01*
X27864606Y-49575395D01*
X27948958Y-49678176D01*
X28011636Y-49795439D01*
X28050233Y-49922677D01*
X28060000Y-50021841D01*
X28060000Y-50388158D01*
X28050233Y-50487322D01*
X28011636Y-50614561D01*
X27948958Y-50731824D01*
X27864606Y-50834606D01*
X27761824Y-50918958D01*
X27644561Y-50981636D01*
X27517323Y-51020233D01*
X27385000Y-51033266D01*
X27252678Y-51020233D01*
X27125440Y-50981636D01*
X27008177Y-50918958D01*
X26956786Y-50876782D01*
X26905396Y-50834608D01*
X26888915Y-50814526D01*
X26821042Y-50731824D01*
X26758364Y-50614561D01*
X26719767Y-50487323D01*
X26710000Y-50388159D01*
X26710000Y-50021842D01*
X26719767Y-49922678D01*
X26758364Y-49795440D01*
X26821042Y-49678177D01*
X26888664Y-49595780D01*
X26905392Y-49575396D01*
X26925474Y-49558915D01*
X27008176Y-49491042D01*
X27125439Y-49428364D01*
X27252677Y-49389767D01*
X27385000Y-49376734D01*
X27517322Y-49389767D01*
X27517322Y-49389767D01*
G37*
G36*
X25097224Y-48515128D02*
X25229175Y-48555155D01*
X25350781Y-48620155D01*
X25457370Y-48707630D01*
X25544845Y-48814219D01*
X25609845Y-48935825D01*
X25649872Y-49067776D01*
X25663387Y-49205000D01*
X25649872Y-49342224D01*
X25609845Y-49474175D01*
X25544845Y-49595781D01*
X25457370Y-49702370D01*
X25350781Y-49789845D01*
X25229175Y-49854845D01*
X25097224Y-49894872D01*
X24994390Y-49905000D01*
X24375610Y-49905000D01*
X24272776Y-49894872D01*
X24140825Y-49854845D01*
X24019219Y-49789845D01*
X23912630Y-49702370D01*
X23825155Y-49595781D01*
X23760155Y-49474175D01*
X23720128Y-49342224D01*
X23706613Y-49205000D01*
X23720128Y-49067776D01*
X23760155Y-48935825D01*
X23825155Y-48814219D01*
X23912630Y-48707630D01*
X24019219Y-48620155D01*
X24140825Y-48555155D01*
X24272776Y-48515128D01*
X24375610Y-48505000D01*
X24994390Y-48505000D01*
X25097224Y-48515128D01*
X25097224Y-48515128D01*
G37*
G36*
X41276707Y-41248597D02*
X41353836Y-41256193D01*
X41485787Y-41296220D01*
X41551763Y-41316233D01*
X41734172Y-41413733D01*
X41894054Y-41544946D01*
X42025267Y-41704828D01*
X42122767Y-41887237D01*
X42122767Y-41887238D01*
X42182807Y-42085164D01*
X42203080Y-42291000D01*
X42182807Y-42496836D01*
X42142780Y-42628787D01*
X42122767Y-42694763D01*
X42025267Y-42877172D01*
X41894054Y-43037054D01*
X41734172Y-43168267D01*
X41551763Y-43265767D01*
X41485787Y-43285780D01*
X41353836Y-43325807D01*
X41276707Y-43333404D01*
X41199580Y-43341000D01*
X41096420Y-43341000D01*
X41019293Y-43333404D01*
X40942164Y-43325807D01*
X40810213Y-43285780D01*
X40744237Y-43265767D01*
X40561828Y-43168267D01*
X40401946Y-43037054D01*
X40270733Y-42877172D01*
X40173233Y-42694763D01*
X40153220Y-42628787D01*
X40113193Y-42496836D01*
X40092920Y-42291000D01*
X40113193Y-42085164D01*
X40173233Y-41887238D01*
X40173233Y-41887237D01*
X40270733Y-41704828D01*
X40401946Y-41544946D01*
X40561828Y-41413733D01*
X40744237Y-41316233D01*
X40810213Y-41296220D01*
X40942164Y-41256193D01*
X41019293Y-41248597D01*
X41096420Y-41241000D01*
X41199580Y-41241000D01*
X41276707Y-41248597D01*
X41276707Y-41248597D01*
G37*
G36*
X39658000Y-43341000D02*
X37558000Y-43341000D01*
X37558000Y-41241000D01*
X39658000Y-41241000D01*
X39658000Y-43341000D01*
X39658000Y-43341000D01*
G37*
G36*
X72518707Y-41248597D02*
X72595836Y-41256193D01*
X72727787Y-41296220D01*
X72793763Y-41316233D01*
X72976172Y-41413733D01*
X73136054Y-41544946D01*
X73267267Y-41704828D01*
X73364767Y-41887237D01*
X73364767Y-41887238D01*
X73424807Y-42085164D01*
X73445080Y-42291000D01*
X73424807Y-42496836D01*
X73384780Y-42628787D01*
X73364767Y-42694763D01*
X73267267Y-42877172D01*
X73136054Y-43037054D01*
X72976172Y-43168267D01*
X72793763Y-43265767D01*
X72727787Y-43285780D01*
X72595836Y-43325807D01*
X72518707Y-43333404D01*
X72441580Y-43341000D01*
X72338420Y-43341000D01*
X72261293Y-43333404D01*
X72184164Y-43325807D01*
X72052213Y-43285780D01*
X71986237Y-43265767D01*
X71803828Y-43168267D01*
X71643946Y-43037054D01*
X71512733Y-42877172D01*
X71415233Y-42694763D01*
X71395220Y-42628787D01*
X71355193Y-42496836D01*
X71334920Y-42291000D01*
X71355193Y-42085164D01*
X71415233Y-41887238D01*
X71415233Y-41887237D01*
X71512733Y-41704828D01*
X71643946Y-41544946D01*
X71803828Y-41413733D01*
X71986237Y-41316233D01*
X72052213Y-41296220D01*
X72184164Y-41256193D01*
X72261293Y-41248597D01*
X72338420Y-41241000D01*
X72441580Y-41241000D01*
X72518707Y-41248597D01*
X72518707Y-41248597D01*
G37*
G36*
X75058707Y-41248597D02*
X75135836Y-41256193D01*
X75267787Y-41296220D01*
X75333763Y-41316233D01*
X75516172Y-41413733D01*
X75676054Y-41544946D01*
X75807267Y-41704828D01*
X75904767Y-41887237D01*
X75904767Y-41887238D01*
X75964807Y-42085164D01*
X75985080Y-42291000D01*
X75964807Y-42496836D01*
X75924780Y-42628787D01*
X75904767Y-42694763D01*
X75807267Y-42877172D01*
X75676054Y-43037054D01*
X75516172Y-43168267D01*
X75333763Y-43265767D01*
X75267787Y-43285780D01*
X75135836Y-43325807D01*
X75058707Y-43333404D01*
X74981580Y-43341000D01*
X74878420Y-43341000D01*
X74801293Y-43333404D01*
X74724164Y-43325807D01*
X74592213Y-43285780D01*
X74526237Y-43265767D01*
X74343828Y-43168267D01*
X74183946Y-43037054D01*
X74052733Y-42877172D01*
X73955233Y-42694763D01*
X73935220Y-42628787D01*
X73895193Y-42496836D01*
X73874920Y-42291000D01*
X73895193Y-42085164D01*
X73955233Y-41887238D01*
X73955233Y-41887237D01*
X74052733Y-41704828D01*
X74183946Y-41544946D01*
X74343828Y-41413733D01*
X74526237Y-41316233D01*
X74592213Y-41296220D01*
X74724164Y-41256193D01*
X74801293Y-41248597D01*
X74878420Y-41241000D01*
X74981580Y-41241000D01*
X75058707Y-41248597D01*
X75058707Y-41248597D01*
G37*
G36*
X77598707Y-41248597D02*
X77675836Y-41256193D01*
X77807787Y-41296220D01*
X77873763Y-41316233D01*
X78056172Y-41413733D01*
X78216054Y-41544946D01*
X78347267Y-41704828D01*
X78444767Y-41887237D01*
X78444767Y-41887238D01*
X78504807Y-42085164D01*
X78525080Y-42291000D01*
X78504807Y-42496836D01*
X78464780Y-42628787D01*
X78444767Y-42694763D01*
X78347267Y-42877172D01*
X78216054Y-43037054D01*
X78056172Y-43168267D01*
X77873763Y-43265767D01*
X77807787Y-43285780D01*
X77675836Y-43325807D01*
X77598707Y-43333404D01*
X77521580Y-43341000D01*
X77418420Y-43341000D01*
X77341293Y-43333404D01*
X77264164Y-43325807D01*
X77132213Y-43285780D01*
X77066237Y-43265767D01*
X76883828Y-43168267D01*
X76723946Y-43037054D01*
X76592733Y-42877172D01*
X76495233Y-42694763D01*
X76475220Y-42628787D01*
X76435193Y-42496836D01*
X76414920Y-42291000D01*
X76435193Y-42085164D01*
X76495233Y-41887238D01*
X76495233Y-41887237D01*
X76592733Y-41704828D01*
X76723946Y-41544946D01*
X76883828Y-41413733D01*
X77066237Y-41316233D01*
X77132213Y-41296220D01*
X77264164Y-41256193D01*
X77341293Y-41248597D01*
X77418420Y-41241000D01*
X77521580Y-41241000D01*
X77598707Y-41248597D01*
X77598707Y-41248597D01*
G37*
G36*
X81060000Y-43341000D02*
X78960000Y-43341000D01*
X78960000Y-41241000D01*
X81060000Y-41241000D01*
X81060000Y-43341000D01*
X81060000Y-43341000D01*
G37*
G36*
X65616000Y-43137000D02*
X63416000Y-43137000D01*
X63416000Y-40937000D01*
X65616000Y-40937000D01*
X65616000Y-43137000D01*
X65616000Y-43137000D01*
G37*
G36*
X57111639Y-40952916D02*
X57318986Y-41015815D01*
X57318988Y-41015816D01*
X57510084Y-41117958D01*
X57677581Y-41255419D01*
X57815042Y-41422916D01*
X57917184Y-41614012D01*
X57917185Y-41614014D01*
X57944734Y-41704829D01*
X57980084Y-41821362D01*
X58001322Y-42037000D01*
X57980084Y-42252638D01*
X57917184Y-42459988D01*
X57815042Y-42651084D01*
X57677581Y-42818581D01*
X57510084Y-42956042D01*
X57318988Y-43058184D01*
X57318986Y-43058185D01*
X57111639Y-43121084D01*
X56950038Y-43137000D01*
X56841962Y-43137000D01*
X56680361Y-43121084D01*
X56473014Y-43058185D01*
X56473012Y-43058184D01*
X56281916Y-42956042D01*
X56114419Y-42818581D01*
X55976958Y-42651084D01*
X55874816Y-42459988D01*
X55811916Y-42252638D01*
X55790678Y-42037000D01*
X55811916Y-41821362D01*
X55847266Y-41704829D01*
X55874815Y-41614014D01*
X55874816Y-41614012D01*
X55976958Y-41422916D01*
X56114419Y-41255419D01*
X56281916Y-41117958D01*
X56473012Y-41015816D01*
X56473014Y-41015815D01*
X56680361Y-40952916D01*
X56841962Y-40937000D01*
X56950038Y-40937000D01*
X57111639Y-40952916D01*
X57111639Y-40952916D01*
G37*
G36*
X48206000Y-38490500D02*
X47298000Y-38490500D01*
X47298000Y-36947500D01*
X48206000Y-36947500D01*
X48206000Y-38490500D01*
X48206000Y-38490500D01*
G37*
G36*
X46936000Y-38490500D02*
X46028000Y-38490500D01*
X46028000Y-36947500D01*
X46936000Y-36947500D01*
X46936000Y-38490500D01*
X46936000Y-38490500D01*
G37*
G36*
X49476000Y-38490500D02*
X48568000Y-38490500D01*
X48568000Y-36947500D01*
X49476000Y-36947500D01*
X49476000Y-38490500D01*
X49476000Y-38490500D01*
G37*
G36*
X50746000Y-38490500D02*
X49838000Y-38490500D01*
X49838000Y-36947500D01*
X50746000Y-36947500D01*
X50746000Y-38490500D01*
X50746000Y-38490500D01*
G37*
G36*
X124980451Y-36397127D02*
X125118105Y-36424508D01*
X125290994Y-36496121D01*
X125446590Y-36600087D01*
X125578913Y-36732410D01*
X125682879Y-36888006D01*
X125754492Y-37060895D01*
X125791000Y-37244433D01*
X125791000Y-37431567D01*
X125754492Y-37615105D01*
X125682879Y-37787994D01*
X125578913Y-37943590D01*
X125446590Y-38075913D01*
X125290994Y-38179879D01*
X125118105Y-38251492D01*
X124980451Y-38278873D01*
X124934568Y-38288000D01*
X124747432Y-38288000D01*
X124701549Y-38278873D01*
X124563895Y-38251492D01*
X124391006Y-38179879D01*
X124235410Y-38075913D01*
X124103087Y-37943590D01*
X123999121Y-37787994D01*
X123927508Y-37615105D01*
X123891000Y-37431567D01*
X123891000Y-37244433D01*
X123927508Y-37060895D01*
X123999121Y-36888006D01*
X124103087Y-36732410D01*
X124235410Y-36600087D01*
X124391006Y-36496121D01*
X124563895Y-36424508D01*
X124701549Y-36397127D01*
X124747432Y-36388000D01*
X124934568Y-36388000D01*
X124980451Y-36397127D01*
X124980451Y-36397127D01*
G37*
G36*
X120410451Y-36397127D02*
X120548105Y-36424508D01*
X120720994Y-36496121D01*
X120876590Y-36600087D01*
X121008913Y-36732410D01*
X121112879Y-36888006D01*
X121170518Y-37027158D01*
X121182067Y-37048764D01*
X121197612Y-37067706D01*
X121216554Y-37083251D01*
X121238165Y-37094802D01*
X121261614Y-37101915D01*
X121286000Y-37104317D01*
X121310387Y-37101915D01*
X121333836Y-37094802D01*
X121355447Y-37083250D01*
X121374389Y-37067705D01*
X121389934Y-37048763D01*
X121401482Y-37027158D01*
X121459121Y-36888006D01*
X121563087Y-36732410D01*
X121695410Y-36600087D01*
X121851006Y-36496121D01*
X122023895Y-36424508D01*
X122161549Y-36397127D01*
X122207432Y-36388000D01*
X122394568Y-36388000D01*
X122440451Y-36397127D01*
X122578105Y-36424508D01*
X122750994Y-36496121D01*
X122906590Y-36600087D01*
X123038913Y-36732410D01*
X123142879Y-36888006D01*
X123214492Y-37060895D01*
X123251000Y-37244433D01*
X123251000Y-37431567D01*
X123214492Y-37615105D01*
X123142879Y-37787994D01*
X123038913Y-37943590D01*
X122906590Y-38075913D01*
X122750994Y-38179879D01*
X122578105Y-38251492D01*
X122440451Y-38278873D01*
X122394568Y-38288000D01*
X122207432Y-38288000D01*
X122161549Y-38278873D01*
X122023895Y-38251492D01*
X121851006Y-38179879D01*
X121695410Y-38075913D01*
X121563087Y-37943590D01*
X121459121Y-37787994D01*
X121401482Y-37648842D01*
X121389933Y-37627236D01*
X121374388Y-37608294D01*
X121355446Y-37592749D01*
X121333835Y-37581198D01*
X121310386Y-37574085D01*
X121286000Y-37571683D01*
X121261613Y-37574085D01*
X121238164Y-37581198D01*
X121216553Y-37592750D01*
X121197611Y-37608295D01*
X121182066Y-37627237D01*
X121170518Y-37648842D01*
X121112879Y-37787994D01*
X121008913Y-37943590D01*
X120876590Y-38075913D01*
X120720994Y-38179879D01*
X120548105Y-38251492D01*
X120410451Y-38278873D01*
X120364568Y-38288000D01*
X120177432Y-38288000D01*
X120131549Y-38278873D01*
X119993895Y-38251492D01*
X119821006Y-38179879D01*
X119665410Y-38075913D01*
X119533087Y-37943590D01*
X119429121Y-37787994D01*
X119357508Y-37615105D01*
X119321000Y-37431567D01*
X119321000Y-37244433D01*
X119357508Y-37060895D01*
X119429121Y-36888006D01*
X119533087Y-36732410D01*
X119665410Y-36600087D01*
X119821006Y-36496121D01*
X119993895Y-36424508D01*
X120131549Y-36397127D01*
X120177432Y-36388000D01*
X120364568Y-36388000D01*
X120410451Y-36397127D01*
X120410451Y-36397127D01*
G37*
G36*
X117870451Y-36397127D02*
X118008105Y-36424508D01*
X118180994Y-36496121D01*
X118336590Y-36600087D01*
X118468913Y-36732410D01*
X118572879Y-36888006D01*
X118644492Y-37060895D01*
X118681000Y-37244433D01*
X118681000Y-37431567D01*
X118644492Y-37615105D01*
X118572879Y-37787994D01*
X118468913Y-37943590D01*
X118336590Y-38075913D01*
X118180994Y-38179879D01*
X118008105Y-38251492D01*
X117870451Y-38278873D01*
X117824568Y-38288000D01*
X117637432Y-38288000D01*
X117591549Y-38278873D01*
X117453895Y-38251492D01*
X117281006Y-38179879D01*
X117125410Y-38075913D01*
X116993087Y-37943590D01*
X116889121Y-37787994D01*
X116817508Y-37615105D01*
X116781000Y-37431567D01*
X116781000Y-37244433D01*
X116817508Y-37060895D01*
X116889121Y-36888006D01*
X116993087Y-36732410D01*
X117125410Y-36600087D01*
X117281006Y-36496121D01*
X117453895Y-36424508D01*
X117591549Y-36397127D01*
X117637432Y-36388000D01*
X117824568Y-36388000D01*
X117870451Y-36397127D01*
X117870451Y-36397127D01*
G37*
G36*
X115067393Y-33011553D02*
X115176872Y-33033330D01*
X115486252Y-33161479D01*
X115764687Y-33347523D01*
X116001477Y-33584313D01*
X116187521Y-33862748D01*
X116315670Y-34172128D01*
X116381000Y-34500565D01*
X116381000Y-34835435D01*
X116315670Y-35163872D01*
X116187521Y-35473252D01*
X116001477Y-35751687D01*
X115764687Y-35988477D01*
X115486252Y-36174521D01*
X115176872Y-36302670D01*
X115067393Y-36324447D01*
X114848437Y-36368000D01*
X114513563Y-36368000D01*
X114294607Y-36324447D01*
X114185128Y-36302670D01*
X113875748Y-36174521D01*
X113597313Y-35988477D01*
X113360523Y-35751687D01*
X113174479Y-35473252D01*
X113046330Y-35163872D01*
X112981000Y-34835435D01*
X112981000Y-34500565D01*
X113046330Y-34172128D01*
X113174479Y-33862748D01*
X113360523Y-33584313D01*
X113597313Y-33347523D01*
X113875748Y-33161479D01*
X114185128Y-33033330D01*
X114294607Y-33011553D01*
X114513563Y-32968000D01*
X114848437Y-32968000D01*
X115067393Y-33011553D01*
X115067393Y-33011553D01*
G37*
G36*
X128787393Y-33011553D02*
X128896872Y-33033330D01*
X129206252Y-33161479D01*
X129484687Y-33347523D01*
X129721477Y-33584313D01*
X129907521Y-33862748D01*
X130035670Y-34172128D01*
X130101000Y-34500565D01*
X130101000Y-34835435D01*
X130035670Y-35163872D01*
X129907521Y-35473252D01*
X129721477Y-35751687D01*
X129484687Y-35988477D01*
X129206252Y-36174521D01*
X128896872Y-36302670D01*
X128787393Y-36324447D01*
X128568437Y-36368000D01*
X128233563Y-36368000D01*
X128014607Y-36324447D01*
X127905128Y-36302670D01*
X127595748Y-36174521D01*
X127317313Y-35988477D01*
X127080523Y-35751687D01*
X126894479Y-35473252D01*
X126766330Y-35163872D01*
X126701000Y-34835435D01*
X126701000Y-34500565D01*
X126766330Y-34172128D01*
X126894479Y-33862748D01*
X127080523Y-33584313D01*
X127317313Y-33347523D01*
X127595748Y-33161479D01*
X127905128Y-33033330D01*
X128014607Y-33011553D01*
X128233563Y-32968000D01*
X128568437Y-32968000D01*
X128787393Y-33011553D01*
X128787393Y-33011553D01*
G37*
G36*
X41124000Y-34124000D02*
X40024000Y-34124000D01*
X40024000Y-32424000D01*
X41124000Y-32424000D01*
X41124000Y-34124000D01*
X41124000Y-34124000D01*
G37*
G36*
X39224000Y-34124000D02*
X38124000Y-34124000D01*
X38124000Y-32424000D01*
X39224000Y-32424000D01*
X39224000Y-34124000D01*
X39224000Y-34124000D01*
G37*
G36*
X58523000Y-33870000D02*
X57423000Y-33870000D01*
X57423000Y-32170000D01*
X58523000Y-32170000D01*
X58523000Y-33870000D01*
X58523000Y-33870000D01*
G37*
G36*
X56623000Y-33870000D02*
X55523000Y-33870000D01*
X55523000Y-32170000D01*
X56623000Y-32170000D01*
X56623000Y-33870000D01*
X56623000Y-33870000D01*
G37*
G36*
X48206000Y-32140500D02*
X47298000Y-32140500D01*
X47298000Y-30597500D01*
X48206000Y-30597500D01*
X48206000Y-32140500D01*
X48206000Y-32140500D01*
G37*
G36*
X50746000Y-32140500D02*
X49838000Y-32140500D01*
X49838000Y-30597500D01*
X50746000Y-30597500D01*
X50746000Y-32140500D01*
X50746000Y-32140500D01*
G37*
G36*
X49476000Y-32140500D02*
X48568000Y-32140500D01*
X48568000Y-30597500D01*
X49476000Y-30597500D01*
X49476000Y-32140500D01*
X49476000Y-32140500D01*
G37*
G36*
X46936000Y-32140500D02*
X46028000Y-32140500D01*
X46028000Y-30597500D01*
X46936000Y-30597500D01*
X46936000Y-32140500D01*
X46936000Y-32140500D01*
G37*
G36*
X29960323Y-29259767D02*
X30087561Y-29298364D01*
X30204824Y-29361042D01*
X30307606Y-29445394D01*
X30391958Y-29548176D01*
X30454636Y-29665439D01*
X30493233Y-29792677D01*
X30506266Y-29925000D01*
X30493233Y-30057323D01*
X30454636Y-30184561D01*
X30391958Y-30301824D01*
X30307606Y-30404606D01*
X30204824Y-30488958D01*
X30087561Y-30551636D01*
X29960323Y-30590233D01*
X29861159Y-30600000D01*
X29494841Y-30600000D01*
X29395677Y-30590233D01*
X29268439Y-30551636D01*
X29151176Y-30488958D01*
X29048394Y-30404606D01*
X28964042Y-30301824D01*
X28901364Y-30184561D01*
X28862767Y-30057323D01*
X28849734Y-29925000D01*
X28862767Y-29792677D01*
X28901364Y-29665439D01*
X28964042Y-29548176D01*
X29048394Y-29445394D01*
X29151176Y-29361042D01*
X29268439Y-29298364D01*
X29395677Y-29259767D01*
X29494841Y-29250000D01*
X29861159Y-29250000D01*
X29960323Y-29259767D01*
X29960323Y-29259767D01*
G37*
G36*
X24960323Y-29259767D02*
X25087561Y-29298364D01*
X25204824Y-29361042D01*
X25307606Y-29445394D01*
X25391958Y-29548176D01*
X25454636Y-29665439D01*
X25493233Y-29792677D01*
X25506266Y-29925000D01*
X25493233Y-30057323D01*
X25454636Y-30184561D01*
X25391958Y-30301824D01*
X25307606Y-30404606D01*
X25204824Y-30488958D01*
X25087561Y-30551636D01*
X24960323Y-30590233D01*
X24861159Y-30600000D01*
X24494841Y-30600000D01*
X24395677Y-30590233D01*
X24268439Y-30551636D01*
X24151176Y-30488958D01*
X24048394Y-30404606D01*
X23964042Y-30301824D01*
X23901364Y-30184561D01*
X23862767Y-30057323D01*
X23849734Y-29925000D01*
X23862767Y-29792677D01*
X23901364Y-29665439D01*
X23964042Y-29548176D01*
X24048394Y-29445394D01*
X24151176Y-29361042D01*
X24268439Y-29298364D01*
X24395677Y-29259767D01*
X24494841Y-29250000D01*
X24861159Y-29250000D01*
X24960323Y-29259767D01*
X24960323Y-29259767D01*
G37*
G36*
X30815224Y-26260128D02*
X30947175Y-26300155D01*
X31068781Y-26365155D01*
X31175370Y-26452630D01*
X31262845Y-26559219D01*
X31327845Y-26680825D01*
X31367872Y-26812776D01*
X31378000Y-26915610D01*
X31378000Y-27534390D01*
X31367872Y-27637224D01*
X31327845Y-27769175D01*
X31262845Y-27890781D01*
X31175369Y-27997370D01*
X31068780Y-28084845D01*
X30947174Y-28149845D01*
X30815223Y-28189872D01*
X30678000Y-28203387D01*
X30540776Y-28189872D01*
X30408825Y-28149845D01*
X30287219Y-28084845D01*
X30180630Y-27997369D01*
X30093155Y-27890780D01*
X30028155Y-27769174D01*
X29988128Y-27637223D01*
X29978000Y-27534389D01*
X29978000Y-26915610D01*
X29988128Y-26812776D01*
X30028155Y-26680825D01*
X30093155Y-26559219D01*
X30180631Y-26452630D01*
X30287220Y-26365155D01*
X30408826Y-26300155D01*
X30540777Y-26260128D01*
X30678000Y-26246613D01*
X30815224Y-26260128D01*
X30815224Y-26260128D01*
G37*
G36*
X23815224Y-26260128D02*
X23947175Y-26300155D01*
X24068781Y-26365155D01*
X24175370Y-26452630D01*
X24262845Y-26559219D01*
X24327845Y-26680825D01*
X24367872Y-26812776D01*
X24378000Y-26915610D01*
X24378000Y-27534390D01*
X24367872Y-27637224D01*
X24327845Y-27769175D01*
X24262845Y-27890781D01*
X24175369Y-27997370D01*
X24068780Y-28084845D01*
X23947174Y-28149845D01*
X23815223Y-28189872D01*
X23678000Y-28203387D01*
X23540776Y-28189872D01*
X23408825Y-28149845D01*
X23287219Y-28084845D01*
X23180630Y-27997369D01*
X23093155Y-27890780D01*
X23028155Y-27769174D01*
X22988128Y-27637223D01*
X22978000Y-27534389D01*
X22978000Y-26915610D01*
X22988128Y-26812776D01*
X23028155Y-26680825D01*
X23093155Y-26559219D01*
X23180631Y-26452630D01*
X23287220Y-26365155D01*
X23408826Y-26300155D01*
X23540777Y-26260128D01*
X23678000Y-26246613D01*
X23815224Y-26260128D01*
X23815224Y-26260128D01*
G37*
G36*
X72678000Y-27085000D02*
X70578000Y-27085000D01*
X70578000Y-24985000D01*
X72678000Y-24985000D01*
X72678000Y-27085000D01*
X72678000Y-27085000D01*
G37*
G36*
X69216707Y-24992597D02*
X69293836Y-25000193D01*
X69425787Y-25040220D01*
X69491763Y-25060233D01*
X69674172Y-25157733D01*
X69834054Y-25288946D01*
X69965267Y-25448828D01*
X70062767Y-25631237D01*
X70062767Y-25631238D01*
X70122807Y-25829164D01*
X70143080Y-26035000D01*
X70122807Y-26240836D01*
X70104813Y-26300155D01*
X70062767Y-26438763D01*
X69965267Y-26621172D01*
X69834054Y-26781054D01*
X69674172Y-26912267D01*
X69491763Y-27009767D01*
X69425787Y-27029780D01*
X69293836Y-27069807D01*
X69216707Y-27077404D01*
X69139580Y-27085000D01*
X69036420Y-27085000D01*
X68959293Y-27077404D01*
X68882164Y-27069807D01*
X68750213Y-27029780D01*
X68684237Y-27009767D01*
X68501828Y-26912267D01*
X68341946Y-26781054D01*
X68210733Y-26621172D01*
X68113233Y-26438763D01*
X68071187Y-26300155D01*
X68053193Y-26240836D01*
X68032920Y-26035000D01*
X68053193Y-25829164D01*
X68113233Y-25631238D01*
X68113233Y-25631237D01*
X68210733Y-25448828D01*
X68341946Y-25288946D01*
X68501828Y-25157733D01*
X68684237Y-25060233D01*
X68750213Y-25040220D01*
X68882164Y-25000193D01*
X68959293Y-24992596D01*
X69036420Y-24985000D01*
X69139580Y-24985000D01*
X69216707Y-24992597D01*
X69216707Y-24992597D01*
G37*
G36*
X43816707Y-24992597D02*
X43893836Y-25000193D01*
X44025787Y-25040220D01*
X44091763Y-25060233D01*
X44274172Y-25157733D01*
X44434054Y-25288946D01*
X44565267Y-25448828D01*
X44662767Y-25631237D01*
X44662767Y-25631238D01*
X44722807Y-25829164D01*
X44743080Y-26035000D01*
X44722807Y-26240836D01*
X44704813Y-26300155D01*
X44662767Y-26438763D01*
X44565267Y-26621172D01*
X44434054Y-26781054D01*
X44274172Y-26912267D01*
X44091763Y-27009767D01*
X44025787Y-27029780D01*
X43893836Y-27069807D01*
X43816707Y-27077404D01*
X43739580Y-27085000D01*
X43636420Y-27085000D01*
X43559293Y-27077404D01*
X43482164Y-27069807D01*
X43350213Y-27029780D01*
X43284237Y-27009767D01*
X43101828Y-26912267D01*
X42941946Y-26781054D01*
X42810733Y-26621172D01*
X42713233Y-26438763D01*
X42671187Y-26300155D01*
X42653193Y-26240836D01*
X42632920Y-26035000D01*
X42653193Y-25829164D01*
X42713233Y-25631238D01*
X42713233Y-25631237D01*
X42810733Y-25448828D01*
X42941946Y-25288946D01*
X43101828Y-25157733D01*
X43284237Y-25060233D01*
X43350213Y-25040220D01*
X43482164Y-25000193D01*
X43559293Y-24992596D01*
X43636420Y-24985000D01*
X43739580Y-24985000D01*
X43816707Y-24992597D01*
X43816707Y-24992597D01*
G37*
G36*
X39658000Y-27085000D02*
X37558000Y-27085000D01*
X37558000Y-24985000D01*
X39658000Y-24985000D01*
X39658000Y-27085000D01*
X39658000Y-27085000D01*
G37*
G36*
X41276707Y-24992597D02*
X41353836Y-25000193D01*
X41485787Y-25040220D01*
X41551763Y-25060233D01*
X41734172Y-25157733D01*
X41894054Y-25288946D01*
X42025267Y-25448828D01*
X42122767Y-25631237D01*
X42122767Y-25631238D01*
X42182807Y-25829164D01*
X42203080Y-26035000D01*
X42182807Y-26240836D01*
X42164813Y-26300155D01*
X42122767Y-26438763D01*
X42025267Y-26621172D01*
X41894054Y-26781054D01*
X41734172Y-26912267D01*
X41551763Y-27009767D01*
X41485787Y-27029780D01*
X41353836Y-27069807D01*
X41276707Y-27077404D01*
X41199580Y-27085000D01*
X41096420Y-27085000D01*
X41019293Y-27077404D01*
X40942164Y-27069807D01*
X40810213Y-27029780D01*
X40744237Y-27009767D01*
X40561828Y-26912267D01*
X40401946Y-26781054D01*
X40270733Y-26621172D01*
X40173233Y-26438763D01*
X40131187Y-26300155D01*
X40113193Y-26240836D01*
X40092920Y-26035000D01*
X40113193Y-25829164D01*
X40173233Y-25631238D01*
X40173233Y-25631237D01*
X40270733Y-25448828D01*
X40401946Y-25288946D01*
X40561828Y-25157733D01*
X40744237Y-25060233D01*
X40810213Y-25040220D01*
X40942164Y-25000193D01*
X41019293Y-24992596D01*
X41096420Y-24985000D01*
X41199580Y-24985000D01*
X41276707Y-24992597D01*
X41276707Y-24992597D01*
G37*
G36*
X46356707Y-24992597D02*
X46433836Y-25000193D01*
X46565787Y-25040220D01*
X46631763Y-25060233D01*
X46814172Y-25157733D01*
X46974054Y-25288946D01*
X47105267Y-25448828D01*
X47202767Y-25631237D01*
X47202767Y-25631238D01*
X47262807Y-25829164D01*
X47283080Y-26035000D01*
X47262807Y-26240836D01*
X47244813Y-26300155D01*
X47202767Y-26438763D01*
X47105267Y-26621172D01*
X46974054Y-26781054D01*
X46814172Y-26912267D01*
X46631763Y-27009767D01*
X46565787Y-27029780D01*
X46433836Y-27069807D01*
X46356707Y-27077404D01*
X46279580Y-27085000D01*
X46176420Y-27085000D01*
X46099293Y-27077404D01*
X46022164Y-27069807D01*
X45890213Y-27029780D01*
X45824237Y-27009767D01*
X45641828Y-26912267D01*
X45481946Y-26781054D01*
X45350733Y-26621172D01*
X45253233Y-26438763D01*
X45211187Y-26300155D01*
X45193193Y-26240836D01*
X45172920Y-26035000D01*
X45193193Y-25829164D01*
X45253233Y-25631238D01*
X45253233Y-25631237D01*
X45350733Y-25448828D01*
X45481946Y-25288946D01*
X45641828Y-25157733D01*
X45824237Y-25060233D01*
X45890213Y-25040220D01*
X46022164Y-25000193D01*
X46099293Y-24992596D01*
X46176420Y-24985000D01*
X46279580Y-24985000D01*
X46356707Y-24992597D01*
X46356707Y-24992597D01*
G37*
G36*
X49818000Y-27085000D02*
X47718000Y-27085000D01*
X47718000Y-24985000D01*
X49818000Y-24985000D01*
X49818000Y-27085000D01*
X49818000Y-27085000D01*
G37*
G36*
X51436707Y-24992597D02*
X51513836Y-25000193D01*
X51645787Y-25040220D01*
X51711763Y-25060233D01*
X51894172Y-25157733D01*
X52054054Y-25288946D01*
X52185267Y-25448828D01*
X52282767Y-25631237D01*
X52282767Y-25631238D01*
X52342807Y-25829164D01*
X52363080Y-26035000D01*
X52342807Y-26240836D01*
X52324813Y-26300155D01*
X52282767Y-26438763D01*
X52185267Y-26621172D01*
X52054054Y-26781054D01*
X51894172Y-26912267D01*
X51711763Y-27009767D01*
X51645787Y-27029780D01*
X51513836Y-27069807D01*
X51436707Y-27077404D01*
X51359580Y-27085000D01*
X51256420Y-27085000D01*
X51179293Y-27077404D01*
X51102164Y-27069807D01*
X50970213Y-27029780D01*
X50904237Y-27009767D01*
X50721828Y-26912267D01*
X50561946Y-26781054D01*
X50430733Y-26621172D01*
X50333233Y-26438763D01*
X50291187Y-26300155D01*
X50273193Y-26240836D01*
X50252920Y-26035000D01*
X50273193Y-25829164D01*
X50333233Y-25631238D01*
X50333233Y-25631237D01*
X50430733Y-25448828D01*
X50561946Y-25288946D01*
X50721828Y-25157733D01*
X50904237Y-25060233D01*
X50970213Y-25040220D01*
X51102164Y-25000193D01*
X51179293Y-24992596D01*
X51256420Y-24985000D01*
X51359580Y-24985000D01*
X51436707Y-24992597D01*
X51436707Y-24992597D01*
G37*
G36*
X54898000Y-27085000D02*
X52798000Y-27085000D01*
X52798000Y-24985000D01*
X54898000Y-24985000D01*
X54898000Y-27085000D01*
X54898000Y-27085000D01*
G37*
G36*
X98050000Y-27050000D02*
X95950000Y-27050000D01*
X95950000Y-24950000D01*
X98050000Y-24950000D01*
X98050000Y-27050000D01*
X98050000Y-27050000D01*
G37*
M02*
