G04 #@! TF.GenerationSoftware,KiCad,Pcbnew,(5.0.0)*
G04 #@! TF.CreationDate,2018-11-23T00:32:49+07:00*
G04 #@! TF.ProjectId,ext_module,6578745F6D6F64756C652E6B69636164,rev?*
G04 #@! TF.SameCoordinates,Original*
G04 #@! TF.FileFunction,Legend,Bot*
G04 #@! TF.FilePolarity,Positive*
%FSLAX46Y46*%
G04 Gerber Fmt 4.6, Leading zero omitted, Abs format (unit mm)*
G04 Created by KiCad (PCBNEW (5.0.0)) date 11/23/18 00:32:49*
%MOMM*%
%LPD*%
G01*
G04 APERTURE LIST*
%ADD10C,0.150000*%
%ADD11C,0.120000*%
G04 APERTURE END LIST*
D10*
X21000000Y-23000000D02*
X21000000Y-75000000D01*
X133000000Y-23000000D02*
X21000000Y-23000000D01*
X133000000Y-45000000D02*
X133000000Y-23000000D01*
X98000000Y-45000000D02*
X133000000Y-45000000D01*
X98000000Y-75000000D02*
X98000000Y-45000000D01*
X81000000Y-75000000D02*
X98000000Y-75000000D01*
X81000000Y-45000000D02*
X81000000Y-75000000D01*
X38000000Y-45000000D02*
X81000000Y-45000000D01*
X38000000Y-75000000D02*
X38000000Y-45000000D01*
X21000000Y-75000000D02*
X38000000Y-75000000D01*
D11*
G04 #@! TO.C,R4.7k1*
X56423000Y-33900000D02*
X57623000Y-33900000D01*
X57623000Y-32140000D02*
X56423000Y-32140000D01*
G04 #@! TO.C,R4.7k2*
X40224000Y-32394000D02*
X39024000Y-32394000D01*
X39024000Y-34154000D02*
X40224000Y-34154000D01*
D10*
G04 #@! TO.C,U1B1*
X50927000Y-32258000D02*
X45847000Y-32258000D01*
X45847000Y-32258000D02*
X45847000Y-36830000D01*
X45847000Y-36830000D02*
X50927000Y-36830000D01*
X50927000Y-36830000D02*
X50927000Y-32258000D01*
X50927000Y-33782000D02*
X50419000Y-33782000D01*
X50419000Y-33782000D02*
X50419000Y-35052000D01*
X50419000Y-35052000D02*
X50927000Y-35052000D01*
D11*
G04 #@! TO.C,Photo_R1*
X72958000Y-24695000D02*
X70358000Y-24695000D01*
X70358000Y-24695000D02*
X70358000Y-22075000D01*
X70358000Y-22075000D02*
X72958000Y-22075000D01*
X72958000Y-22075000D02*
X72958000Y-24695000D01*
X72008000Y-22075000D02*
X71248000Y-22075000D01*
X71248000Y-22075000D02*
X71248000Y-16075000D01*
X71248000Y-16075000D02*
X72008000Y-16075000D01*
X72008000Y-16075000D02*
X72008000Y-22075000D01*
X72008000Y-25125000D02*
X72008000Y-24695000D01*
X71248000Y-25125000D02*
X71248000Y-24695000D01*
X71888000Y-22075000D02*
X71888000Y-16075000D01*
X71768000Y-22075000D02*
X71768000Y-16075000D01*
X71648000Y-22075000D02*
X71648000Y-16075000D01*
X71528000Y-22075000D02*
X71528000Y-16075000D01*
X71408000Y-22075000D02*
X71408000Y-16075000D01*
X71288000Y-22075000D02*
X71288000Y-16075000D01*
X70358000Y-24695000D02*
X67758000Y-24695000D01*
X67758000Y-24695000D02*
X67758000Y-22075000D01*
X67758000Y-22075000D02*
X70358000Y-22075000D01*
X70358000Y-22075000D02*
X70358000Y-24695000D01*
X69468000Y-22075000D02*
X68708000Y-22075000D01*
X68708000Y-22075000D02*
X68708000Y-16075000D01*
X68708000Y-16075000D02*
X69468000Y-16075000D01*
X69468000Y-16075000D02*
X69468000Y-22075000D01*
X69468000Y-25125000D02*
X69468000Y-24695000D01*
X68708000Y-25125000D02*
X68708000Y-24695000D01*
X71628000Y-27305000D02*
X72898000Y-27305000D01*
X72898000Y-27305000D02*
X72898000Y-26035000D01*
G04 #@! TD*
G04 #@! TO.C,R4.7k1*
D10*
X58784904Y-31822380D02*
X59118238Y-31346190D01*
X59356333Y-31822380D02*
X59356333Y-30822380D01*
X58975380Y-30822380D01*
X58880142Y-30870000D01*
X58832523Y-30917619D01*
X58784904Y-31012857D01*
X58784904Y-31155714D01*
X58832523Y-31250952D01*
X58880142Y-31298571D01*
X58975380Y-31346190D01*
X59356333Y-31346190D01*
X57927761Y-31155714D02*
X57927761Y-31822380D01*
X58165857Y-30774761D02*
X58403952Y-31489047D01*
X57784904Y-31489047D01*
X57403952Y-31727142D02*
X57356333Y-31774761D01*
X57403952Y-31822380D01*
X57451571Y-31774761D01*
X57403952Y-31727142D01*
X57403952Y-31822380D01*
X57023000Y-30822380D02*
X56356333Y-30822380D01*
X56784904Y-31822380D01*
X55975380Y-31822380D02*
X55975380Y-30822380D01*
X55880142Y-31441428D02*
X55594428Y-31822380D01*
X55594428Y-31155714D02*
X55975380Y-31536666D01*
X54642047Y-31822380D02*
X55213476Y-31822380D01*
X54927761Y-31822380D02*
X54927761Y-30822380D01*
X55023000Y-30965238D01*
X55118238Y-31060476D01*
X55213476Y-31108095D01*
G04 #@! TO.C,R4.7k2*
X41385904Y-35376380D02*
X41719238Y-34900190D01*
X41957333Y-35376380D02*
X41957333Y-34376380D01*
X41576380Y-34376380D01*
X41481142Y-34424000D01*
X41433523Y-34471619D01*
X41385904Y-34566857D01*
X41385904Y-34709714D01*
X41433523Y-34804952D01*
X41481142Y-34852571D01*
X41576380Y-34900190D01*
X41957333Y-34900190D01*
X40528761Y-34709714D02*
X40528761Y-35376380D01*
X40766857Y-34328761D02*
X41004952Y-35043047D01*
X40385904Y-35043047D01*
X40004952Y-35281142D02*
X39957333Y-35328761D01*
X40004952Y-35376380D01*
X40052571Y-35328761D01*
X40004952Y-35281142D01*
X40004952Y-35376380D01*
X39624000Y-34376380D02*
X38957333Y-34376380D01*
X39385904Y-35376380D01*
X38576380Y-35376380D02*
X38576380Y-34376380D01*
X38481142Y-34995428D02*
X38195428Y-35376380D01*
X38195428Y-34709714D02*
X38576380Y-35090666D01*
X37814476Y-34471619D02*
X37766857Y-34424000D01*
X37671619Y-34376380D01*
X37433523Y-34376380D01*
X37338285Y-34424000D01*
X37290666Y-34471619D01*
X37243047Y-34566857D01*
X37243047Y-34662095D01*
X37290666Y-34804952D01*
X37862095Y-35376380D01*
X37243047Y-35376380D01*
G04 #@! TO.C,U1B1*
X50125095Y-32726380D02*
X50125095Y-33535904D01*
X50077476Y-33631142D01*
X50029857Y-33678761D01*
X49934619Y-33726380D01*
X49744142Y-33726380D01*
X49648904Y-33678761D01*
X49601285Y-33631142D01*
X49553666Y-33535904D01*
X49553666Y-32726380D01*
X48553666Y-33726380D02*
X49125095Y-33726380D01*
X48839380Y-33726380D02*
X48839380Y-32726380D01*
X48934619Y-32869238D01*
X49029857Y-32964476D01*
X49125095Y-33012095D01*
X47791761Y-33202571D02*
X47648904Y-33250190D01*
X47601285Y-33297809D01*
X47553666Y-33393047D01*
X47553666Y-33535904D01*
X47601285Y-33631142D01*
X47648904Y-33678761D01*
X47744142Y-33726380D01*
X48125095Y-33726380D01*
X48125095Y-32726380D01*
X47791761Y-32726380D01*
X47696523Y-32774000D01*
X47648904Y-32821619D01*
X47601285Y-32916857D01*
X47601285Y-33012095D01*
X47648904Y-33107333D01*
X47696523Y-33154952D01*
X47791761Y-33202571D01*
X48125095Y-33202571D01*
X46601285Y-33726380D02*
X47172714Y-33726380D01*
X46887000Y-33726380D02*
X46887000Y-32726380D01*
X46982238Y-32869238D01*
X47077476Y-32964476D01*
X47172714Y-33012095D01*
G04 #@! TO.C,Photo_R1*
X74350380Y-18458095D02*
X73350380Y-18458095D01*
X73350380Y-18839047D01*
X73398000Y-18934285D01*
X73445619Y-18981904D01*
X73540857Y-19029523D01*
X73683714Y-19029523D01*
X73778952Y-18981904D01*
X73826571Y-18934285D01*
X73874190Y-18839047D01*
X73874190Y-18458095D01*
X74350380Y-19458095D02*
X73350380Y-19458095D01*
X74350380Y-19886666D02*
X73826571Y-19886666D01*
X73731333Y-19839047D01*
X73683714Y-19743809D01*
X73683714Y-19600952D01*
X73731333Y-19505714D01*
X73778952Y-19458095D01*
X74350380Y-20505714D02*
X74302761Y-20410476D01*
X74255142Y-20362857D01*
X74159904Y-20315238D01*
X73874190Y-20315238D01*
X73778952Y-20362857D01*
X73731333Y-20410476D01*
X73683714Y-20505714D01*
X73683714Y-20648571D01*
X73731333Y-20743809D01*
X73778952Y-20791428D01*
X73874190Y-20839047D01*
X74159904Y-20839047D01*
X74255142Y-20791428D01*
X74302761Y-20743809D01*
X74350380Y-20648571D01*
X74350380Y-20505714D01*
X73683714Y-21124761D02*
X73683714Y-21505714D01*
X73350380Y-21267619D02*
X74207523Y-21267619D01*
X74302761Y-21315238D01*
X74350380Y-21410476D01*
X74350380Y-21505714D01*
X74350380Y-21981904D02*
X74302761Y-21886666D01*
X74255142Y-21839047D01*
X74159904Y-21791428D01*
X73874190Y-21791428D01*
X73778952Y-21839047D01*
X73731333Y-21886666D01*
X73683714Y-21981904D01*
X73683714Y-22124761D01*
X73731333Y-22220000D01*
X73778952Y-22267619D01*
X73874190Y-22315238D01*
X74159904Y-22315238D01*
X74255142Y-22267619D01*
X74302761Y-22220000D01*
X74350380Y-22124761D01*
X74350380Y-21981904D01*
X74445619Y-22505714D02*
X74445619Y-23267619D01*
X74350380Y-24077142D02*
X73874190Y-23743809D01*
X74350380Y-23505714D02*
X73350380Y-23505714D01*
X73350380Y-23886666D01*
X73398000Y-23981904D01*
X73445619Y-24029523D01*
X73540857Y-24077142D01*
X73683714Y-24077142D01*
X73778952Y-24029523D01*
X73826571Y-23981904D01*
X73874190Y-23886666D01*
X73874190Y-23505714D01*
X74350380Y-25029523D02*
X74350380Y-24458095D01*
X74350380Y-24743809D02*
X73350380Y-24743809D01*
X73493238Y-24648571D01*
X73588476Y-24553333D01*
X73636095Y-24458095D01*
G04 #@! TD*
M02*
