G04 #@! TF.GenerationSoftware,KiCad,Pcbnew,(5.0.0)*
G04 #@! TF.CreationDate,2018-11-23T00:32:49+07:00*
G04 #@! TF.ProjectId,ext_module,6578745F6D6F64756C652E6B69636164,rev?*
G04 #@! TF.SameCoordinates,Original*
G04 #@! TF.FileFunction,Paste,Top*
G04 #@! TF.FilePolarity,Positive*
%FSLAX46Y46*%
G04 Gerber Fmt 4.6, Leading zero omitted, Abs format (unit mm)*
G04 Created by KiCad (PCBNEW (5.0.0)) date 11/23/18 00:32:49*
%MOMM*%
%LPD*%
G01*
G04 APERTURE LIST*
%ADD10C,0.150000*%
%ADD11R,1.250000X1.000000*%
%ADD12R,1.000000X1.250000*%
%ADD13R,1.300000X0.700000*%
%ADD14R,1.350000X0.400000*%
%ADD15R,0.400000X1.350000*%
%ADD16R,0.508000X1.143000*%
G04 APERTURE END LIST*
D10*
X21000000Y-23000000D02*
X21000000Y-75000000D01*
X133000000Y-23000000D02*
X21000000Y-23000000D01*
X133000000Y-45000000D02*
X133000000Y-23000000D01*
X98000000Y-45000000D02*
X133000000Y-45000000D01*
X98000000Y-75000000D02*
X98000000Y-45000000D01*
X81000000Y-75000000D02*
X98000000Y-75000000D01*
X81000000Y-45000000D02*
X81000000Y-75000000D01*
X38000000Y-45000000D02*
X81000000Y-45000000D01*
X38000000Y-75000000D02*
X38000000Y-45000000D01*
X21000000Y-75000000D02*
X38000000Y-75000000D01*
D11*
G04 #@! TO.C,C1uF1*
X93980000Y-35703000D03*
X93980000Y-37703000D03*
G04 #@! TD*
D12*
G04 #@! TO.C,C2.2uF1*
X83582000Y-36576000D03*
X85582000Y-36576000D03*
G04 #@! TD*
G04 #@! TO.C,C10uF1*
X90789000Y-36576000D03*
X88789000Y-36576000D03*
G04 #@! TD*
D13*
G04 #@! TO.C,R10k2*
X71628000Y-32253000D03*
X71628000Y-30353000D03*
G04 #@! TD*
G04 #@! TO.C,R100k1*
X108458000Y-37841000D03*
X108458000Y-35941000D03*
G04 #@! TD*
D14*
G04 #@! TO.C,U1*
X27385000Y-51405000D03*
X27385000Y-52055000D03*
X27385000Y-52705000D03*
X27385000Y-53355000D03*
X27385000Y-54005000D03*
G04 #@! TD*
D15*
G04 #@! TO.C,U2*
X28478000Y-29925000D03*
X27828000Y-29925000D03*
X27178000Y-29925000D03*
X26528000Y-29925000D03*
X25878000Y-29925000D03*
G04 #@! TD*
D16*
G04 #@! TO.C,U2F1*
X101219000Y-39878000D03*
X99949000Y-39878000D03*
X98679000Y-39878000D03*
X97409000Y-39878000D03*
X97409000Y-33528000D03*
X98679000Y-33528000D03*
X99949000Y-33528000D03*
X101219000Y-33528000D03*
G04 #@! TD*
M02*
