%FSLAX45Y45*%
G04 Gerber Fmt 4.5, Leading zero omitted, Abs format (unit mm)*
G04 Created by KiCad (PCBNEW (5.0.0)) date 11/23/18 00:33:10*
%MOMM*%
%LPD*%
G01*
G04 APERTURE LIST*
%ADD10C,0.150000*%
%ADD11C,0.200000*%
%ADD12C,0.300000*%
G04 APERTURE END LIST*
D10*
X2100000Y-2300000D02*
X2100000Y-7500000D01*
X13300000Y-2300000D02*
X2100000Y-2300000D01*
X13300000Y-4500000D02*
X13300000Y-2300000D01*
X9800000Y-4500000D02*
X13300000Y-4500000D01*
X9800000Y-7500000D02*
X9800000Y-4500000D01*
X8100000Y-7500000D02*
X9800000Y-7500000D01*
X8100000Y-4500000D02*
X8100000Y-7500000D01*
X3800000Y-4500000D02*
X8100000Y-4500000D01*
X3800000Y-7500000D02*
X3800000Y-4500000D01*
X2100000Y-7500000D02*
X3800000Y-7500000D01*
D11*
D12*
X2378928Y-7973214D02*
X2378928Y-7673214D01*
X2450357Y-7673214D01*
X2493214Y-7687500D01*
X2521786Y-7716071D01*
X2536071Y-7744643D01*
X2550357Y-7801786D01*
X2550357Y-7844643D01*
X2536071Y-7901786D01*
X2521786Y-7930357D01*
X2493214Y-7958929D01*
X2450357Y-7973214D01*
X2378928Y-7973214D01*
X2678928Y-7973214D02*
X2678928Y-7773214D01*
X2678928Y-7830357D02*
X2693214Y-7801786D01*
X2707500Y-7787500D01*
X2736071Y-7773214D01*
X2764643Y-7773214D01*
X2864643Y-7973214D02*
X2864643Y-7773214D01*
X2864643Y-7673214D02*
X2850357Y-7687500D01*
X2864643Y-7701786D01*
X2878928Y-7687500D01*
X2864643Y-7673214D01*
X2864643Y-7701786D01*
X3050357Y-7973214D02*
X3021786Y-7958929D01*
X3007500Y-7930357D01*
X3007500Y-7673214D01*
X3207500Y-7973214D02*
X3178928Y-7958929D01*
X3164643Y-7930357D01*
X3164643Y-7673214D01*
X3550357Y-7973214D02*
X3550357Y-7673214D01*
X3650357Y-7887500D01*
X3750357Y-7673214D01*
X3750357Y-7973214D01*
X4021786Y-7973214D02*
X4021786Y-7816071D01*
X4007500Y-7787500D01*
X3978928Y-7773214D01*
X3921786Y-7773214D01*
X3893214Y-7787500D01*
X4021786Y-7958929D02*
X3993214Y-7973214D01*
X3921786Y-7973214D01*
X3893214Y-7958929D01*
X3878928Y-7930357D01*
X3878928Y-7901786D01*
X3893214Y-7873214D01*
X3921786Y-7858929D01*
X3993214Y-7858929D01*
X4021786Y-7844643D01*
X4164643Y-7773214D02*
X4164643Y-8073214D01*
X4164643Y-7787500D02*
X4193214Y-7773214D01*
X4250357Y-7773214D01*
X4278928Y-7787500D01*
X4293214Y-7801786D01*
X4307500Y-7830357D01*
X4307500Y-7916071D01*
X4293214Y-7944643D01*
X4278928Y-7958929D01*
X4250357Y-7973214D01*
X4193214Y-7973214D01*
X4164643Y-7958929D01*
X4436071Y-7944643D02*
X4450357Y-7958929D01*
X4436071Y-7973214D01*
X4421786Y-7958929D01*
X4436071Y-7944643D01*
X4436071Y-7973214D01*
X4436071Y-7787500D02*
X4450357Y-7801786D01*
X4436071Y-7816071D01*
X4421786Y-7801786D01*
X4436071Y-7787500D01*
X4436071Y-7816071D01*
M02*
