G04 #@! TF.GenerationSoftware,KiCad,Pcbnew,(5.0.0)*
G04 #@! TF.CreationDate,2018-11-23T00:32:49+07:00*
G04 #@! TF.ProjectId,ext_module,6578745F6D6F64756C652E6B69636164,rev?*
G04 #@! TF.SameCoordinates,Original*
G04 #@! TF.FileFunction,Copper,L1,Top,Signal*
G04 #@! TF.FilePolarity,Positive*
%FSLAX46Y46*%
G04 Gerber Fmt 4.6, Leading zero omitted, Abs format (unit mm)*
G04 Created by KiCad (PCBNEW (5.0.0)) date 11/23/18 00:32:49*
%MOMM*%
%LPD*%
G01*
G04 APERTURE LIST*
G04 #@! TA.AperFunction,NonConductor*
%ADD10C,0.150000*%
G04 #@! TD*
G04 #@! TA.AperFunction,NonConductor*
%ADD11C,0.300000*%
G04 #@! TD*
G04 #@! TA.AperFunction,ComponentPad*
%ADD12R,1.800000X1.800000*%
G04 #@! TD*
G04 #@! TA.AperFunction,ComponentPad*
%ADD13O,1.800000X1.800000*%
G04 #@! TD*
G04 #@! TA.AperFunction,SMDPad,CuDef*
%ADD14R,1.250000X1.000000*%
G04 #@! TD*
G04 #@! TA.AperFunction,SMDPad,CuDef*
%ADD15R,1.000000X1.250000*%
G04 #@! TD*
G04 #@! TA.AperFunction,ComponentPad*
%ADD16C,1.500000*%
G04 #@! TD*
G04 #@! TA.AperFunction,ComponentPad*
%ADD17C,3.000000*%
G04 #@! TD*
G04 #@! TA.AperFunction,ComponentPad*
%ADD18R,1.700000X1.700000*%
G04 #@! TD*
G04 #@! TA.AperFunction,ComponentPad*
%ADD19O,1.700000X1.700000*%
G04 #@! TD*
G04 #@! TA.AperFunction,SMDPad,CuDef*
%ADD20R,1.300000X0.700000*%
G04 #@! TD*
G04 #@! TA.AperFunction,SMDPad,CuDef*
%ADD21R,1.350000X0.400000*%
G04 #@! TD*
G04 #@! TA.AperFunction,ComponentPad*
%ADD22O,0.950000X1.250000*%
G04 #@! TD*
G04 #@! TA.AperFunction,ComponentPad*
%ADD23O,1.550000X1.000000*%
G04 #@! TD*
G04 #@! TA.AperFunction,SMDPad,CuDef*
%ADD24R,0.400000X1.350000*%
G04 #@! TD*
G04 #@! TA.AperFunction,ComponentPad*
%ADD25O,1.250000X0.950000*%
G04 #@! TD*
G04 #@! TA.AperFunction,ComponentPad*
%ADD26O,1.000000X1.550000*%
G04 #@! TD*
G04 #@! TA.AperFunction,SMDPad,CuDef*
%ADD27R,0.508000X1.143000*%
G04 #@! TD*
G04 #@! TA.AperFunction,ViaPad*
%ADD28C,0.600000*%
G04 #@! TD*
G04 #@! TA.AperFunction,Conductor*
%ADD29C,0.500000*%
G04 #@! TD*
G04 #@! TA.AperFunction,Conductor*
%ADD30C,0.400000*%
G04 #@! TD*
G04 #@! TA.AperFunction,Conductor*
%ADD31C,0.800000*%
G04 #@! TD*
G04 APERTURE END LIST*
D10*
X21000000Y-23000000D02*
X21000000Y-75000000D01*
X133000000Y-23000000D02*
X21000000Y-23000000D01*
X133000000Y-45000000D02*
X133000000Y-23000000D01*
X98000000Y-45000000D02*
X133000000Y-45000000D01*
X98000000Y-75000000D02*
X98000000Y-45000000D01*
X81000000Y-75000000D02*
X98000000Y-75000000D01*
X81000000Y-45000000D02*
X81000000Y-75000000D01*
X38000000Y-45000000D02*
X81000000Y-45000000D01*
X38000000Y-75000000D02*
X38000000Y-45000000D01*
X21000000Y-75000000D02*
X38000000Y-75000000D01*
D11*
X85888142Y-68520571D02*
X86388142Y-70020571D01*
X86888142Y-68520571D01*
X87959571Y-69949142D02*
X87816714Y-70020571D01*
X87531000Y-70020571D01*
X87388142Y-69949142D01*
X87316714Y-69806285D01*
X87316714Y-69234857D01*
X87388142Y-69092000D01*
X87531000Y-69020571D01*
X87816714Y-69020571D01*
X87959571Y-69092000D01*
X88031000Y-69234857D01*
X88031000Y-69377714D01*
X87316714Y-69520571D01*
X88673857Y-70020571D02*
X88673857Y-69020571D01*
X88673857Y-69306285D02*
X88745285Y-69163428D01*
X88816714Y-69092000D01*
X88959571Y-69020571D01*
X89102428Y-69020571D01*
X89459571Y-68520571D02*
X90388142Y-68520571D01*
X89888142Y-69092000D01*
X90102428Y-69092000D01*
X90245285Y-69163428D01*
X90316714Y-69234857D01*
X90388142Y-69377714D01*
X90388142Y-69734857D01*
X90316714Y-69877714D01*
X90245285Y-69949142D01*
X90102428Y-70020571D01*
X89673857Y-70020571D01*
X89531000Y-69949142D01*
X89459571Y-69877714D01*
X91031000Y-69877714D02*
X91102428Y-69949142D01*
X91031000Y-70020571D01*
X90959571Y-69949142D01*
X91031000Y-69877714D01*
X91031000Y-70020571D01*
X92031000Y-68520571D02*
X92173857Y-68520571D01*
X92316714Y-68592000D01*
X92388142Y-68663428D01*
X92459571Y-68806285D01*
X92531000Y-69092000D01*
X92531000Y-69449142D01*
X92459571Y-69734857D01*
X92388142Y-69877714D01*
X92316714Y-69949142D01*
X92173857Y-70020571D01*
X92031000Y-70020571D01*
X91888142Y-69949142D01*
X91816714Y-69877714D01*
X91745285Y-69734857D01*
X91673857Y-69449142D01*
X91673857Y-69092000D01*
X91745285Y-68806285D01*
X91816714Y-68663428D01*
X91888142Y-68592000D01*
X92031000Y-68520571D01*
X129413000Y-26443714D02*
X129484428Y-26515142D01*
X129413000Y-26586571D01*
X129341571Y-26515142D01*
X129413000Y-26443714D01*
X129413000Y-26586571D01*
X23622000Y-72290714D02*
X23693428Y-72362142D01*
X23622000Y-72433571D01*
X23550571Y-72362142D01*
X23622000Y-72290714D01*
X23622000Y-72433571D01*
D12*
G04 #@! TO.P,D1,1*
G04 #@! TO.N,Net-(D1-Pad1)*
X64516000Y-42037000D03*
D13*
G04 #@! TO.P,D1,2*
G04 #@! TO.N,Net-(D1-Pad2)*
X56896000Y-42037000D03*
G04 #@! TD*
D14*
G04 #@! TO.P,C1uF1,1*
G04 #@! TO.N,Net-(C1uF1-Pad1)*
X93980000Y-35703000D03*
G04 #@! TO.P,C1uF1,2*
G04 #@! TO.N,Net-(C1uF1-Pad2)*
X93980000Y-37703000D03*
G04 #@! TD*
D15*
G04 #@! TO.P,C2.2uF1,1*
G04 #@! TO.N,Net-(C2.2uF1-Pad1)*
X83582000Y-36576000D03*
G04 #@! TO.P,C2.2uF1,2*
G04 #@! TO.N,GND*
X85582000Y-36576000D03*
G04 #@! TD*
G04 #@! TO.P,C10uF1,1*
G04 #@! TO.N,Net-(C10uF1-Pad1)*
X90789000Y-36576000D03*
G04 #@! TO.P,C10uF1,2*
G04 #@! TO.N,GND*
X88789000Y-36576000D03*
G04 #@! TD*
D16*
G04 #@! TO.P,P1,4*
G04 #@! TO.N,GND*
X117731000Y-37338000D03*
G04 #@! TO.P,P1,3*
G04 #@! TO.N,Net-(P1-Pad3)*
X120271000Y-37338000D03*
G04 #@! TO.P,P1,2*
G04 #@! TO.N,Net-(P1-Pad2)*
X122301000Y-37338000D03*
G04 #@! TO.P,P1,1*
G04 #@! TO.N,Net-(P1-Pad1)*
X124841000Y-37338000D03*
D17*
G04 #@! TO.P,P1,5*
G04 #@! TO.N,Net-(P1-Pad5)*
X114681000Y-34668000D03*
X128401000Y-34668000D03*
G04 #@! TD*
D18*
G04 #@! TO.P,P2,1*
G04 #@! TO.N,Net-(P1-Pad1)*
X80010000Y-42291000D03*
D19*
G04 #@! TO.P,P2,2*
G04 #@! TO.N,Net-(P1-Pad2)*
X77470000Y-42291000D03*
G04 #@! TO.P,P2,3*
G04 #@! TO.N,Net-(P1-Pad3)*
X74930000Y-42291000D03*
G04 #@! TO.P,P2,4*
G04 #@! TO.N,GND*
X72390000Y-42291000D03*
G04 #@! TD*
D18*
G04 #@! TO.P,P3,1*
G04 #@! TO.N,Net-(D1-Pad2)*
X34925000Y-55880000D03*
D19*
G04 #@! TO.P,P3,2*
G04 #@! TO.N,Net-(P3-Pad2)*
X34925000Y-58420000D03*
G04 #@! TO.P,P3,3*
G04 #@! TO.N,Net-(P3-Pad3)*
X34925000Y-60960000D03*
G04 #@! TO.P,P3,4*
G04 #@! TO.N,GND*
X34925000Y-63500000D03*
G04 #@! TD*
D18*
G04 #@! TO.P,P4,1*
G04 #@! TO.N,Net-(C2.2uF1-Pad1)*
X83693000Y-55880000D03*
D19*
G04 #@! TO.P,P4,2*
G04 #@! TO.N,Net-(P4-Pad2)*
X83693000Y-58420000D03*
G04 #@! TO.P,P4,3*
G04 #@! TO.N,Net-(P4-Pad3)*
X83693000Y-60960000D03*
G04 #@! TO.P,P4,4*
G04 #@! TO.N,GND*
X83693000Y-63500000D03*
G04 #@! TD*
D18*
G04 #@! TO.P,P6,1*
G04 #@! TO.N,Net-(C10uF1-Pad1)*
X94996000Y-55880000D03*
D19*
G04 #@! TO.P,P6,2*
G04 #@! TO.N,Net-(P4-Pad2)*
X94996000Y-58420000D03*
G04 #@! TO.P,P6,3*
G04 #@! TO.N,Net-(P4-Pad3)*
X94996000Y-60960000D03*
G04 #@! TO.P,P6,4*
G04 #@! TO.N,GND*
X94996000Y-63500000D03*
G04 #@! TD*
D18*
G04 #@! TO.P,P7,1*
G04 #@! TO.N,Net-(P7-Pad1)*
X97000000Y-26000000D03*
G04 #@! TD*
G04 #@! TO.P,P8,1*
G04 #@! TO.N,Net-(D1-Pad1)*
X38608000Y-26035000D03*
D19*
G04 #@! TO.P,P8,2*
G04 #@! TO.N,Net-(P5-Pad2)*
X41148000Y-26035000D03*
G04 #@! TO.P,P8,3*
G04 #@! TO.N,Net-(P5-Pad1)*
X43688000Y-26035000D03*
G04 #@! TO.P,P8,4*
G04 #@! TO.N,GND*
X46228000Y-26035000D03*
G04 #@! TD*
D18*
G04 #@! TO.P,P9,1*
G04 #@! TO.N,Net-(P9-Pad1)*
X48768000Y-26035000D03*
D19*
G04 #@! TO.P,P9,2*
G04 #@! TO.N,Net-(P9-Pad2)*
X51308000Y-26035000D03*
G04 #@! TD*
D18*
G04 #@! TO.P,P10,1*
G04 #@! TO.N,Net-(P10-Pad1)*
X53848000Y-26035000D03*
G04 #@! TD*
D20*
G04 #@! TO.P,R10k2,1*
G04 #@! TO.N,GND*
X71628000Y-32253000D03*
G04 #@! TO.P,R10k2,2*
G04 #@! TO.N,Net-(P10-Pad1)*
X71628000Y-30353000D03*
G04 #@! TD*
G04 #@! TO.P,R100k1,1*
G04 #@! TO.N,Net-(R100k1-Pad1)*
X108458000Y-37841000D03*
G04 #@! TO.P,R100k1,2*
G04 #@! TO.N,Net-(P7-Pad1)*
X108458000Y-35941000D03*
G04 #@! TD*
D21*
G04 #@! TO.P,U1,1*
G04 #@! TO.N,Net-(D1-Pad2)*
X27385000Y-51405000D03*
G04 #@! TO.P,U1,2*
G04 #@! TO.N,Net-(P3-Pad2)*
X27385000Y-52055000D03*
G04 #@! TO.P,U1,3*
G04 #@! TO.N,Net-(P3-Pad3)*
X27385000Y-52705000D03*
G04 #@! TO.P,U1,4*
G04 #@! TO.N,Net-(U1-Pad4)*
X27385000Y-53355000D03*
G04 #@! TO.P,U1,5*
G04 #@! TO.N,GND*
X27385000Y-54005000D03*
D22*
G04 #@! TO.P,U1,6*
G04 #@! TO.N,N/C*
X27385000Y-50205000D03*
X27385000Y-55205000D03*
D23*
X24685000Y-49205000D03*
X24685000Y-56205000D03*
G04 #@! TD*
D24*
G04 #@! TO.P,U2,1*
G04 #@! TO.N,Net-(D1-Pad1)*
X28478000Y-29925000D03*
G04 #@! TO.P,U2,2*
G04 #@! TO.N,Net-(P5-Pad2)*
X27828000Y-29925000D03*
G04 #@! TO.P,U2,3*
G04 #@! TO.N,Net-(P5-Pad1)*
X27178000Y-29925000D03*
G04 #@! TO.P,U2,4*
G04 #@! TO.N,Net-(U2-Pad4)*
X26528000Y-29925000D03*
G04 #@! TO.P,U2,5*
G04 #@! TO.N,GND*
X25878000Y-29925000D03*
D25*
G04 #@! TO.P,U2,6*
G04 #@! TO.N,N/C*
X29678000Y-29925000D03*
X24678000Y-29925000D03*
D26*
X30678000Y-27225000D03*
X23678000Y-27225000D03*
G04 #@! TD*
D27*
G04 #@! TO.P,U2F1,8*
G04 #@! TO.N,Net-(C10uF1-Pad1)*
X101219000Y-39878000D03*
G04 #@! TO.P,U2F1,7*
G04 #@! TO.N,Net-(C1uF1-Pad1)*
X99949000Y-39878000D03*
G04 #@! TO.P,U2F1,6*
G04 #@! TO.N,Net-(C1uF1-Pad2)*
X98679000Y-39878000D03*
G04 #@! TO.P,U2F1,5*
G04 #@! TO.N,GND*
X97409000Y-39878000D03*
G04 #@! TO.P,U2F1,4*
X97409000Y-33528000D03*
G04 #@! TO.P,U2F1,3*
G04 #@! TO.N,Net-(C2.2uF1-Pad1)*
X98679000Y-33528000D03*
G04 #@! TO.P,U2F1,2*
G04 #@! TO.N,Net-(R100k1-Pad1)*
X99949000Y-33528000D03*
G04 #@! TO.P,U2F1,1*
G04 #@! TO.N,Net-(C2.2uF1-Pad1)*
X101219000Y-33528000D03*
G04 #@! TD*
D18*
G04 #@! TO.P,Photo_R1,1*
G04 #@! TO.N,Net-(P10-Pad1)*
X71628000Y-26035000D03*
D19*
G04 #@! TO.P,Photo_R1,2*
G04 #@! TO.N,Net-(D1-Pad1)*
X69088000Y-26035000D03*
G04 #@! TD*
D18*
G04 #@! TO.P,P5,1*
G04 #@! TO.N,Net-(P5-Pad1)*
X38608000Y-42291000D03*
D19*
G04 #@! TO.P,P5,2*
G04 #@! TO.N,Net-(P5-Pad2)*
X41148000Y-42291000D03*
G04 #@! TD*
D28*
G04 #@! TO.N,Net-(P5-Pad1)*
X35179000Y-34417000D03*
X35179000Y-38608000D03*
G04 #@! TO.N,GND*
X88000000Y-33000000D03*
X28000000Y-59000000D03*
X44704000Y-33528000D03*
X24638000Y-53975000D03*
X27178000Y-27051000D03*
X36703000Y-32893000D03*
X25273000Y-32766000D03*
G04 #@! TD*
D29*
G04 #@! TO.N,Net-(C1uF1-Pad1)*
X99949000Y-39878000D02*
X99949000Y-37338000D01*
X98314000Y-35703000D02*
X93980000Y-35703000D01*
X99949000Y-37338000D02*
X98314000Y-35703000D01*
G04 #@! TO.N,Net-(C1uF1-Pad2)*
X98679000Y-39878000D02*
X98679000Y-38608000D01*
X97774000Y-37703000D02*
X93980000Y-37703000D01*
X98679000Y-38608000D02*
X97774000Y-37703000D01*
D30*
G04 #@! TO.N,Net-(C2.2uF1-Pad1)*
X83582000Y-36576000D02*
X83582000Y-31607000D01*
X83582000Y-31607000D02*
X84963000Y-30226000D01*
X98679000Y-33528000D02*
X98679000Y-30861000D01*
X101219000Y-30734000D02*
X101219000Y-33528000D01*
X99314000Y-30226000D02*
X100711000Y-30226000D01*
X100711000Y-30226000D02*
X101219000Y-30734000D01*
X83582000Y-36576000D02*
X83582000Y-55769000D01*
X83582000Y-55769000D02*
X83693000Y-55880000D01*
X98679000Y-30861000D02*
X98044000Y-30226000D01*
X84963000Y-30226000D02*
X98044000Y-30226000D01*
X98044000Y-30226000D02*
X99314000Y-30226000D01*
G04 #@! TO.N,Net-(C10uF1-Pad1)*
X93345000Y-42164000D02*
X94869000Y-43688000D01*
X94869000Y-43688000D02*
X94869000Y-55753000D01*
X94869000Y-55753000D02*
X94996000Y-55880000D01*
X90789000Y-36576000D02*
X90789000Y-40751000D01*
X101219000Y-41148000D02*
X101219000Y-39878000D01*
X100203000Y-42164000D02*
X101219000Y-41148000D01*
X92202000Y-42164000D02*
X93345000Y-42164000D01*
X93345000Y-42164000D02*
X100203000Y-42164000D01*
X90789000Y-40751000D02*
X92202000Y-42164000D01*
G04 #@! TO.N,Net-(D1-Pad1)*
X36449000Y-26035000D02*
X38608000Y-26035000D01*
X28478000Y-31780000D02*
X29083000Y-32385000D01*
X28478000Y-29925000D02*
X28478000Y-31780000D01*
X29083000Y-32385000D02*
X32004000Y-32385000D01*
X32004000Y-32385000D02*
X32639000Y-31750000D01*
X32639000Y-31750000D02*
X32639000Y-29845000D01*
X32639000Y-29845000D02*
X36449000Y-26035000D01*
G04 #@! TO.N,Net-(D1-Pad2)*
X27385000Y-51405000D02*
X33371000Y-51405000D01*
X34925000Y-52959000D02*
X34925000Y-55880000D01*
X33371000Y-51405000D02*
X34925000Y-52959000D01*
G04 #@! TO.N,Net-(P3-Pad2)*
X27385000Y-52055000D02*
X31100000Y-52055000D01*
X33528000Y-58420000D02*
X34925000Y-58420000D01*
X32639000Y-57531000D02*
X33528000Y-58420000D01*
X32639000Y-53594000D02*
X32639000Y-57531000D01*
X31100000Y-52055000D02*
X32639000Y-53594000D01*
G04 #@! TO.N,Net-(P3-Pad3)*
X32639000Y-60960000D02*
X34925000Y-60960000D01*
X31242000Y-59563000D02*
X32639000Y-60960000D01*
X31242000Y-54102000D02*
X31242000Y-59563000D01*
X27385000Y-52705000D02*
X29845000Y-52705000D01*
X29845000Y-52705000D02*
X31242000Y-54102000D01*
G04 #@! TO.N,Net-(P5-Pad2)*
X27828000Y-29925000D02*
X27828000Y-33797000D01*
X27828000Y-33797000D02*
X30035500Y-36004500D01*
X29845000Y-35814000D02*
X30861000Y-36830000D01*
X30861000Y-36830000D02*
X33528000Y-36830000D01*
X41148000Y-39878000D02*
X41148000Y-42291000D01*
X33528000Y-36830000D02*
X38100000Y-36830000D01*
X38100000Y-36830000D02*
X41148000Y-39878000D01*
X33909000Y-36830000D02*
X33528000Y-36830000D01*
X33909000Y-30607000D02*
X33909000Y-36830000D01*
X35433000Y-29083000D02*
X33909000Y-30607000D01*
X40259000Y-29083000D02*
X35433000Y-29083000D01*
X41148000Y-26035000D02*
X41148000Y-28194000D01*
X41148000Y-28194000D02*
X40259000Y-29083000D01*
G04 #@! TO.N,Net-(P7-Pad1)*
X108458000Y-28000000D02*
X108458000Y-35941000D01*
X106458000Y-26000000D02*
X108458000Y-28000000D01*
X97000000Y-26000000D02*
X106458000Y-26000000D01*
G04 #@! TO.N,Net-(P10-Pad1)*
X53848000Y-28575000D02*
X53848000Y-26035000D01*
X71628000Y-30353000D02*
X55626000Y-30353000D01*
X55626000Y-30353000D02*
X53848000Y-28575000D01*
X71628000Y-30353000D02*
X71628000Y-26035000D01*
G04 #@! TO.N,Net-(R100k1-Pad1)*
X99949000Y-35052000D02*
X102743000Y-37846000D01*
X99949000Y-33528000D02*
X99949000Y-35052000D01*
X107403000Y-37846000D02*
X102743000Y-37846000D01*
X107408000Y-37841000D02*
X107403000Y-37846000D01*
X108458000Y-37841000D02*
X107408000Y-37841000D01*
G04 #@! TO.N,Net-(P5-Pad1)*
X43688000Y-28575000D02*
X43688000Y-26035000D01*
X37592000Y-30353000D02*
X41910000Y-30353000D01*
X41910000Y-30353000D02*
X43688000Y-28575000D01*
X27178000Y-29925000D02*
X27178000Y-34290000D01*
X27178000Y-34290000D02*
X31496000Y-38608000D01*
X37592000Y-30353000D02*
X36195000Y-30353000D01*
X36195000Y-30353000D02*
X35179000Y-31369000D01*
X35179000Y-31369000D02*
X35179000Y-34417000D01*
X31496000Y-38608000D02*
X35179000Y-38608000D01*
X38608000Y-40005000D02*
X38608000Y-42291000D01*
X35179000Y-38608000D02*
X37211000Y-38608000D01*
X37211000Y-38608000D02*
X38608000Y-40005000D01*
G04 #@! TO.N,GND*
X85582000Y-36576000D02*
X85582000Y-35418000D01*
X85582000Y-35418000D02*
X88000000Y-33000000D01*
X27385000Y-54005000D02*
X24668000Y-54005000D01*
X24668000Y-54005000D02*
X24638000Y-53975000D01*
X29011000Y-59000000D02*
X28000000Y-59000000D01*
X29990000Y-58021000D02*
X29011000Y-59000000D01*
X29990000Y-55000000D02*
X29990000Y-58021000D01*
X27385000Y-54005000D02*
X28995000Y-54005000D01*
X28995000Y-54005000D02*
X29990000Y-55000000D01*
X25908000Y-28321000D02*
X27178000Y-27051000D01*
X25878000Y-29925000D02*
X25878000Y-28351000D01*
X25878000Y-28351000D02*
X25908000Y-28321000D01*
X25878000Y-29925000D02*
X25878000Y-32161000D01*
X25878000Y-32161000D02*
X25273000Y-32766000D01*
X37338000Y-33528000D02*
X36703000Y-32893000D01*
X44704000Y-33528000D02*
X37338000Y-33528000D01*
G04 #@! TD*
D31*
G04 #@! TO.N,GND*
G36*
X97579001Y-31873999D02*
X97434000Y-32019000D01*
X97434000Y-33503000D01*
X97454000Y-33503000D01*
X97454000Y-33553000D01*
X97434000Y-33553000D01*
X97434000Y-33573000D01*
X97384000Y-33573000D01*
X97384000Y-33553000D01*
X96217500Y-33553000D01*
X95905000Y-33865500D01*
X95905000Y-34348141D01*
X95989855Y-34553000D01*
X95252164Y-34553000D01*
X94956163Y-34355219D01*
X94605000Y-34285368D01*
X93355000Y-34285368D01*
X93003837Y-34355219D01*
X92706136Y-34554136D01*
X92507219Y-34851837D01*
X92437368Y-35203000D01*
X92437368Y-36203000D01*
X92507219Y-36554163D01*
X92606668Y-36703000D01*
X92507219Y-36851837D01*
X92437368Y-37203000D01*
X92437368Y-38203000D01*
X92507219Y-38554163D01*
X92706136Y-38851864D01*
X93003837Y-39050781D01*
X93355000Y-39120632D01*
X94605000Y-39120632D01*
X94956163Y-39050781D01*
X95252164Y-38853000D01*
X95989855Y-38853000D01*
X95905000Y-39057859D01*
X95905000Y-39540500D01*
X96217500Y-39853000D01*
X97384000Y-39853000D01*
X97384000Y-39833000D01*
X97434000Y-39833000D01*
X97434000Y-39853000D01*
X97454000Y-39853000D01*
X97454000Y-39903000D01*
X97434000Y-39903000D01*
X97434000Y-39923000D01*
X97384000Y-39923000D01*
X97384000Y-39903000D01*
X96217500Y-39903000D01*
X95905000Y-40215500D01*
X95905000Y-40698141D01*
X96056544Y-41064000D01*
X93453339Y-41064000D01*
X93345000Y-41042450D01*
X93236661Y-41064000D01*
X92657635Y-41064000D01*
X91889000Y-40295366D01*
X91889000Y-37882514D01*
X91937864Y-37849864D01*
X92136781Y-37552163D01*
X92206632Y-37201000D01*
X92206632Y-35951000D01*
X92136781Y-35599837D01*
X91937864Y-35302136D01*
X91640163Y-35103219D01*
X91289000Y-35033368D01*
X90289000Y-35033368D01*
X90163999Y-35058232D01*
X89997068Y-34891301D01*
X89537640Y-34701000D01*
X89126500Y-34701000D01*
X88814000Y-35013500D01*
X88814000Y-36551000D01*
X88834000Y-36551000D01*
X88834000Y-36601000D01*
X88814000Y-36601000D01*
X88814000Y-38138500D01*
X89126500Y-38451000D01*
X89537640Y-38451000D01*
X89689000Y-38388305D01*
X89689001Y-40642656D01*
X89667450Y-40751000D01*
X89752823Y-41180198D01*
X89752824Y-41180199D01*
X89995945Y-41544056D01*
X90087792Y-41605426D01*
X91347574Y-42865208D01*
X91408944Y-42957056D01*
X91772801Y-43200177D01*
X92202000Y-43285550D01*
X92310339Y-43264000D01*
X92889366Y-43264000D01*
X93769000Y-44143635D01*
X93769001Y-54199482D01*
X93497136Y-54381136D01*
X93298219Y-54678837D01*
X93228368Y-55030000D01*
X93228368Y-56730000D01*
X93298219Y-57081163D01*
X93497136Y-57378864D01*
X93559234Y-57420357D01*
X93347537Y-57737184D01*
X93211716Y-58420000D01*
X93347537Y-59102816D01*
X93734321Y-59681679D01*
X93746774Y-59690000D01*
X93734321Y-59698321D01*
X93347537Y-60277184D01*
X93211716Y-60960000D01*
X93347537Y-61642816D01*
X93585559Y-61999042D01*
X93282489Y-62285963D01*
X92948330Y-63034108D01*
X92925913Y-63146819D01*
X93208675Y-63475000D01*
X94971000Y-63475000D01*
X94971000Y-63455000D01*
X95021000Y-63455000D01*
X95021000Y-63475000D01*
X95041000Y-63475000D01*
X95041000Y-63525000D01*
X95021000Y-63525000D01*
X95021000Y-65287353D01*
X95349182Y-65570089D01*
X96114486Y-65277356D01*
X96600000Y-64817713D01*
X96600000Y-73600000D01*
X82400000Y-73600000D01*
X82400000Y-67287000D01*
X84695286Y-67287000D01*
X84695286Y-71637000D01*
X93866715Y-71637000D01*
X93866715Y-67287000D01*
X84695286Y-67287000D01*
X82400000Y-67287000D01*
X82400000Y-65112141D01*
X82574514Y-65277356D01*
X83339818Y-65570089D01*
X83668000Y-65287353D01*
X83668000Y-63525000D01*
X83718000Y-63525000D01*
X83718000Y-65287353D01*
X84046182Y-65570089D01*
X84811486Y-65277356D01*
X85406511Y-64714037D01*
X85740670Y-63965892D01*
X85763087Y-63853181D01*
X92925913Y-63853181D01*
X92948330Y-63965892D01*
X93282489Y-64714037D01*
X93877514Y-65277356D01*
X94642818Y-65570089D01*
X94971000Y-65287353D01*
X94971000Y-63525000D01*
X93208675Y-63525000D01*
X92925913Y-63853181D01*
X85763087Y-63853181D01*
X85480325Y-63525000D01*
X83718000Y-63525000D01*
X83668000Y-63525000D01*
X83648000Y-63525000D01*
X83648000Y-63475000D01*
X83668000Y-63475000D01*
X83668000Y-63455000D01*
X83718000Y-63455000D01*
X83718000Y-63475000D01*
X85480325Y-63475000D01*
X85763087Y-63146819D01*
X85740670Y-63034108D01*
X85406511Y-62285963D01*
X85103441Y-61999042D01*
X85341463Y-61642816D01*
X85477284Y-60960000D01*
X85341463Y-60277184D01*
X84954679Y-59698321D01*
X84942226Y-59690000D01*
X84954679Y-59681679D01*
X85341463Y-59102816D01*
X85477284Y-58420000D01*
X85341463Y-57737184D01*
X85129766Y-57420357D01*
X85191864Y-57378864D01*
X85390781Y-57081163D01*
X85460632Y-56730000D01*
X85460632Y-55030000D01*
X85390781Y-54678837D01*
X85191864Y-54381136D01*
X84894163Y-54182219D01*
X84682000Y-54140017D01*
X84682000Y-38388305D01*
X84833360Y-38451000D01*
X85244500Y-38451000D01*
X85557000Y-38138500D01*
X85557000Y-36601000D01*
X85607000Y-36601000D01*
X85607000Y-38138500D01*
X85919500Y-38451000D01*
X86330640Y-38451000D01*
X86790068Y-38260699D01*
X87141699Y-37909068D01*
X87185500Y-37803323D01*
X87229301Y-37909068D01*
X87580932Y-38260699D01*
X88040360Y-38451000D01*
X88451500Y-38451000D01*
X88764000Y-38138500D01*
X88764000Y-36601000D01*
X87351500Y-36601000D01*
X87185500Y-36767000D01*
X87019500Y-36601000D01*
X85607000Y-36601000D01*
X85557000Y-36601000D01*
X85537000Y-36601000D01*
X85537000Y-36551000D01*
X85557000Y-36551000D01*
X85557000Y-35013500D01*
X85607000Y-35013500D01*
X85607000Y-36551000D01*
X87019500Y-36551000D01*
X87185500Y-36385000D01*
X87351500Y-36551000D01*
X88764000Y-36551000D01*
X88764000Y-35013500D01*
X88451500Y-34701000D01*
X88040360Y-34701000D01*
X87580932Y-34891301D01*
X87229301Y-35242932D01*
X87185500Y-35348677D01*
X87141699Y-35242932D01*
X86790068Y-34891301D01*
X86330640Y-34701000D01*
X85919500Y-34701000D01*
X85607000Y-35013500D01*
X85557000Y-35013500D01*
X85244500Y-34701000D01*
X84833360Y-34701000D01*
X84682000Y-34763695D01*
X84682000Y-32707859D01*
X95905000Y-32707859D01*
X95905000Y-33190500D01*
X96217500Y-33503000D01*
X97384000Y-33503000D01*
X97384000Y-32019000D01*
X97071500Y-31706500D01*
X96906360Y-31706500D01*
X96446932Y-31896801D01*
X96095301Y-32248432D01*
X95905000Y-32707859D01*
X84682000Y-32707859D01*
X84682000Y-32062634D01*
X85418635Y-31326000D01*
X97579001Y-31326000D01*
X97579001Y-31873999D01*
X97579001Y-31873999D01*
G37*
X97579001Y-31873999D02*
X97434000Y-32019000D01*
X97434000Y-33503000D01*
X97454000Y-33503000D01*
X97454000Y-33553000D01*
X97434000Y-33553000D01*
X97434000Y-33573000D01*
X97384000Y-33573000D01*
X97384000Y-33553000D01*
X96217500Y-33553000D01*
X95905000Y-33865500D01*
X95905000Y-34348141D01*
X95989855Y-34553000D01*
X95252164Y-34553000D01*
X94956163Y-34355219D01*
X94605000Y-34285368D01*
X93355000Y-34285368D01*
X93003837Y-34355219D01*
X92706136Y-34554136D01*
X92507219Y-34851837D01*
X92437368Y-35203000D01*
X92437368Y-36203000D01*
X92507219Y-36554163D01*
X92606668Y-36703000D01*
X92507219Y-36851837D01*
X92437368Y-37203000D01*
X92437368Y-38203000D01*
X92507219Y-38554163D01*
X92706136Y-38851864D01*
X93003837Y-39050781D01*
X93355000Y-39120632D01*
X94605000Y-39120632D01*
X94956163Y-39050781D01*
X95252164Y-38853000D01*
X95989855Y-38853000D01*
X95905000Y-39057859D01*
X95905000Y-39540500D01*
X96217500Y-39853000D01*
X97384000Y-39853000D01*
X97384000Y-39833000D01*
X97434000Y-39833000D01*
X97434000Y-39853000D01*
X97454000Y-39853000D01*
X97454000Y-39903000D01*
X97434000Y-39903000D01*
X97434000Y-39923000D01*
X97384000Y-39923000D01*
X97384000Y-39903000D01*
X96217500Y-39903000D01*
X95905000Y-40215500D01*
X95905000Y-40698141D01*
X96056544Y-41064000D01*
X93453339Y-41064000D01*
X93345000Y-41042450D01*
X93236661Y-41064000D01*
X92657635Y-41064000D01*
X91889000Y-40295366D01*
X91889000Y-37882514D01*
X91937864Y-37849864D01*
X92136781Y-37552163D01*
X92206632Y-37201000D01*
X92206632Y-35951000D01*
X92136781Y-35599837D01*
X91937864Y-35302136D01*
X91640163Y-35103219D01*
X91289000Y-35033368D01*
X90289000Y-35033368D01*
X90163999Y-35058232D01*
X89997068Y-34891301D01*
X89537640Y-34701000D01*
X89126500Y-34701000D01*
X88814000Y-35013500D01*
X88814000Y-36551000D01*
X88834000Y-36551000D01*
X88834000Y-36601000D01*
X88814000Y-36601000D01*
X88814000Y-38138500D01*
X89126500Y-38451000D01*
X89537640Y-38451000D01*
X89689000Y-38388305D01*
X89689001Y-40642656D01*
X89667450Y-40751000D01*
X89752823Y-41180198D01*
X89752824Y-41180199D01*
X89995945Y-41544056D01*
X90087792Y-41605426D01*
X91347574Y-42865208D01*
X91408944Y-42957056D01*
X91772801Y-43200177D01*
X92202000Y-43285550D01*
X92310339Y-43264000D01*
X92889366Y-43264000D01*
X93769000Y-44143635D01*
X93769001Y-54199482D01*
X93497136Y-54381136D01*
X93298219Y-54678837D01*
X93228368Y-55030000D01*
X93228368Y-56730000D01*
X93298219Y-57081163D01*
X93497136Y-57378864D01*
X93559234Y-57420357D01*
X93347537Y-57737184D01*
X93211716Y-58420000D01*
X93347537Y-59102816D01*
X93734321Y-59681679D01*
X93746774Y-59690000D01*
X93734321Y-59698321D01*
X93347537Y-60277184D01*
X93211716Y-60960000D01*
X93347537Y-61642816D01*
X93585559Y-61999042D01*
X93282489Y-62285963D01*
X92948330Y-63034108D01*
X92925913Y-63146819D01*
X93208675Y-63475000D01*
X94971000Y-63475000D01*
X94971000Y-63455000D01*
X95021000Y-63455000D01*
X95021000Y-63475000D01*
X95041000Y-63475000D01*
X95041000Y-63525000D01*
X95021000Y-63525000D01*
X95021000Y-65287353D01*
X95349182Y-65570089D01*
X96114486Y-65277356D01*
X96600000Y-64817713D01*
X96600000Y-73600000D01*
X82400000Y-73600000D01*
X82400000Y-67287000D01*
X84695286Y-67287000D01*
X84695286Y-71637000D01*
X93866715Y-71637000D01*
X93866715Y-67287000D01*
X84695286Y-67287000D01*
X82400000Y-67287000D01*
X82400000Y-65112141D01*
X82574514Y-65277356D01*
X83339818Y-65570089D01*
X83668000Y-65287353D01*
X83668000Y-63525000D01*
X83718000Y-63525000D01*
X83718000Y-65287353D01*
X84046182Y-65570089D01*
X84811486Y-65277356D01*
X85406511Y-64714037D01*
X85740670Y-63965892D01*
X85763087Y-63853181D01*
X92925913Y-63853181D01*
X92948330Y-63965892D01*
X93282489Y-64714037D01*
X93877514Y-65277356D01*
X94642818Y-65570089D01*
X94971000Y-65287353D01*
X94971000Y-63525000D01*
X93208675Y-63525000D01*
X92925913Y-63853181D01*
X85763087Y-63853181D01*
X85480325Y-63525000D01*
X83718000Y-63525000D01*
X83668000Y-63525000D01*
X83648000Y-63525000D01*
X83648000Y-63475000D01*
X83668000Y-63475000D01*
X83668000Y-63455000D01*
X83718000Y-63455000D01*
X83718000Y-63475000D01*
X85480325Y-63475000D01*
X85763087Y-63146819D01*
X85740670Y-63034108D01*
X85406511Y-62285963D01*
X85103441Y-61999042D01*
X85341463Y-61642816D01*
X85477284Y-60960000D01*
X85341463Y-60277184D01*
X84954679Y-59698321D01*
X84942226Y-59690000D01*
X84954679Y-59681679D01*
X85341463Y-59102816D01*
X85477284Y-58420000D01*
X85341463Y-57737184D01*
X85129766Y-57420357D01*
X85191864Y-57378864D01*
X85390781Y-57081163D01*
X85460632Y-56730000D01*
X85460632Y-55030000D01*
X85390781Y-54678837D01*
X85191864Y-54381136D01*
X84894163Y-54182219D01*
X84682000Y-54140017D01*
X84682000Y-38388305D01*
X84833360Y-38451000D01*
X85244500Y-38451000D01*
X85557000Y-38138500D01*
X85557000Y-36601000D01*
X85607000Y-36601000D01*
X85607000Y-38138500D01*
X85919500Y-38451000D01*
X86330640Y-38451000D01*
X86790068Y-38260699D01*
X87141699Y-37909068D01*
X87185500Y-37803323D01*
X87229301Y-37909068D01*
X87580932Y-38260699D01*
X88040360Y-38451000D01*
X88451500Y-38451000D01*
X88764000Y-38138500D01*
X88764000Y-36601000D01*
X87351500Y-36601000D01*
X87185500Y-36767000D01*
X87019500Y-36601000D01*
X85607000Y-36601000D01*
X85557000Y-36601000D01*
X85537000Y-36601000D01*
X85537000Y-36551000D01*
X85557000Y-36551000D01*
X85557000Y-35013500D01*
X85607000Y-35013500D01*
X85607000Y-36551000D01*
X87019500Y-36551000D01*
X87185500Y-36385000D01*
X87351500Y-36551000D01*
X88764000Y-36551000D01*
X88764000Y-35013500D01*
X88451500Y-34701000D01*
X88040360Y-34701000D01*
X87580932Y-34891301D01*
X87229301Y-35242932D01*
X87185500Y-35348677D01*
X87141699Y-35242932D01*
X86790068Y-34891301D01*
X86330640Y-34701000D01*
X85919500Y-34701000D01*
X85607000Y-35013500D01*
X85557000Y-35013500D01*
X85244500Y-34701000D01*
X84833360Y-34701000D01*
X84682000Y-34763695D01*
X84682000Y-32707859D01*
X95905000Y-32707859D01*
X95905000Y-33190500D01*
X96217500Y-33503000D01*
X97384000Y-33503000D01*
X97384000Y-32019000D01*
X97071500Y-31706500D01*
X96906360Y-31706500D01*
X96446932Y-31896801D01*
X96095301Y-32248432D01*
X95905000Y-32707859D01*
X84682000Y-32707859D01*
X84682000Y-32062634D01*
X85418635Y-31326000D01*
X97579001Y-31326000D01*
X97579001Y-31873999D01*
G36*
X22668657Y-28509342D02*
X23131747Y-28818771D01*
X23576312Y-28907200D01*
X23536681Y-28933681D01*
X23232779Y-29388502D01*
X23126063Y-29925000D01*
X23232779Y-30461498D01*
X23536681Y-30916319D01*
X23991502Y-31220221D01*
X24392578Y-31300000D01*
X24614959Y-31300000D01*
X24618301Y-31308068D01*
X24969932Y-31659699D01*
X25429359Y-31850000D01*
X25540500Y-31850000D01*
X25853000Y-31537500D01*
X25853000Y-31365036D01*
X25903000Y-31398445D01*
X25903000Y-31537500D01*
X26078000Y-31712500D01*
X26078001Y-34181656D01*
X26056450Y-34290000D01*
X26141823Y-34719198D01*
X26222539Y-34839998D01*
X26384945Y-35083056D01*
X26476792Y-35144426D01*
X30641574Y-39309209D01*
X30702944Y-39401056D01*
X31066801Y-39644177D01*
X31495999Y-39729550D01*
X31604338Y-39708000D01*
X34698884Y-39708000D01*
X34940305Y-39808000D01*
X35417695Y-39808000D01*
X35659116Y-39708000D01*
X36755366Y-39708000D01*
X37508000Y-40460635D01*
X37508000Y-40573096D01*
X37406837Y-40593219D01*
X37109136Y-40792136D01*
X36910219Y-41089837D01*
X36840368Y-41441000D01*
X36840368Y-43141000D01*
X36910219Y-43492163D01*
X36984353Y-43603112D01*
X36846927Y-43630448D01*
X36717157Y-43717157D01*
X36630448Y-43846927D01*
X36600000Y-44000000D01*
X36600000Y-54644743D01*
X36423864Y-54381136D01*
X36126163Y-54182219D01*
X36025000Y-54162096D01*
X36025000Y-53067339D01*
X36046550Y-52959000D01*
X35961177Y-52529801D01*
X35945365Y-52506136D01*
X35718056Y-52165944D01*
X35626209Y-52104574D01*
X34225428Y-50703794D01*
X34164056Y-50611944D01*
X33800199Y-50368823D01*
X33479339Y-50305000D01*
X33371000Y-50283450D01*
X33262661Y-50305000D01*
X28760000Y-50305000D01*
X28760000Y-49919578D01*
X28680221Y-49518502D01*
X28376318Y-49063681D01*
X27921497Y-48759779D01*
X27385000Y-48653063D01*
X26848502Y-48759779D01*
X26393681Y-49063682D01*
X26367200Y-49103313D01*
X26278771Y-48658747D01*
X25969343Y-48195657D01*
X25506253Y-47886229D01*
X25097885Y-47805000D01*
X24272115Y-47805000D01*
X23863747Y-47886229D01*
X23400657Y-48195657D01*
X23091229Y-48658747D01*
X22982573Y-49205000D01*
X23091229Y-49751253D01*
X23400657Y-50214343D01*
X23863747Y-50523771D01*
X24272115Y-50605000D01*
X25097885Y-50605000D01*
X25506253Y-50523771D01*
X25969343Y-50214343D01*
X26010000Y-50153496D01*
X26010000Y-50490422D01*
X26031803Y-50600035D01*
X25862219Y-50853837D01*
X25792368Y-51205000D01*
X25792368Y-51605000D01*
X25817232Y-51730000D01*
X25792368Y-51855000D01*
X25792368Y-52255000D01*
X25817232Y-52380000D01*
X25792368Y-52505000D01*
X25792368Y-52905000D01*
X25800641Y-52946592D01*
X25650301Y-53096932D01*
X25460000Y-53556359D01*
X25460000Y-53667500D01*
X25772500Y-53980000D01*
X25911555Y-53980000D01*
X25944964Y-54030000D01*
X25772500Y-54030000D01*
X25460000Y-54342500D01*
X25460000Y-54453641D01*
X25650301Y-54913068D01*
X25859485Y-55122252D01*
X25506253Y-54886229D01*
X25097885Y-54805000D01*
X24272115Y-54805000D01*
X23863747Y-54886229D01*
X23400657Y-55195657D01*
X23091229Y-55658747D01*
X22982573Y-56205000D01*
X23091229Y-56751253D01*
X23400657Y-57214343D01*
X23863747Y-57523771D01*
X24272115Y-57605000D01*
X25097885Y-57605000D01*
X25506253Y-57523771D01*
X25969343Y-57214343D01*
X26278771Y-56751253D01*
X26367200Y-56306687D01*
X26393682Y-56346319D01*
X26848503Y-56650221D01*
X27385000Y-56756937D01*
X27921498Y-56650221D01*
X28376319Y-56346319D01*
X28680221Y-55891497D01*
X28760000Y-55490421D01*
X28760000Y-55268041D01*
X28768068Y-55264699D01*
X29119699Y-54913068D01*
X29310000Y-54453641D01*
X29310000Y-54342500D01*
X28997500Y-54030000D01*
X28825036Y-54030000D01*
X28858445Y-53980000D01*
X28997500Y-53980000D01*
X29172500Y-53805000D01*
X29389366Y-53805000D01*
X30142000Y-54557635D01*
X30142001Y-59454656D01*
X30120450Y-59563000D01*
X30205823Y-59992198D01*
X30205824Y-59992199D01*
X30448945Y-60356056D01*
X30540792Y-60417426D01*
X31784574Y-61661208D01*
X31845944Y-61753056D01*
X32209801Y-61996177D01*
X32638999Y-62081550D01*
X32747338Y-62060000D01*
X33450170Y-62060000D01*
X33211489Y-62285963D01*
X32877330Y-63034108D01*
X32854913Y-63146819D01*
X33137675Y-63475000D01*
X34900000Y-63475000D01*
X34900000Y-63455000D01*
X34950000Y-63455000D01*
X34950000Y-63475000D01*
X34970000Y-63475000D01*
X34970000Y-63525000D01*
X34950000Y-63525000D01*
X34950000Y-65287353D01*
X35278182Y-65570089D01*
X36043486Y-65277356D01*
X36600000Y-64750496D01*
X36600000Y-73600000D01*
X25029143Y-73600000D01*
X25029143Y-69700000D01*
X22400000Y-69700000D01*
X22400000Y-63853181D01*
X32854913Y-63853181D01*
X32877330Y-63965892D01*
X33211489Y-64714037D01*
X33806514Y-65277356D01*
X34571818Y-65570089D01*
X34900000Y-65287353D01*
X34900000Y-63525000D01*
X33137675Y-63525000D01*
X32854913Y-63853181D01*
X22400000Y-63853181D01*
X22400000Y-28107270D01*
X22668657Y-28509342D01*
X22668657Y-28509342D01*
G37*
X22668657Y-28509342D02*
X23131747Y-28818771D01*
X23576312Y-28907200D01*
X23536681Y-28933681D01*
X23232779Y-29388502D01*
X23126063Y-29925000D01*
X23232779Y-30461498D01*
X23536681Y-30916319D01*
X23991502Y-31220221D01*
X24392578Y-31300000D01*
X24614959Y-31300000D01*
X24618301Y-31308068D01*
X24969932Y-31659699D01*
X25429359Y-31850000D01*
X25540500Y-31850000D01*
X25853000Y-31537500D01*
X25853000Y-31365036D01*
X25903000Y-31398445D01*
X25903000Y-31537500D01*
X26078000Y-31712500D01*
X26078001Y-34181656D01*
X26056450Y-34290000D01*
X26141823Y-34719198D01*
X26222539Y-34839998D01*
X26384945Y-35083056D01*
X26476792Y-35144426D01*
X30641574Y-39309209D01*
X30702944Y-39401056D01*
X31066801Y-39644177D01*
X31495999Y-39729550D01*
X31604338Y-39708000D01*
X34698884Y-39708000D01*
X34940305Y-39808000D01*
X35417695Y-39808000D01*
X35659116Y-39708000D01*
X36755366Y-39708000D01*
X37508000Y-40460635D01*
X37508000Y-40573096D01*
X37406837Y-40593219D01*
X37109136Y-40792136D01*
X36910219Y-41089837D01*
X36840368Y-41441000D01*
X36840368Y-43141000D01*
X36910219Y-43492163D01*
X36984353Y-43603112D01*
X36846927Y-43630448D01*
X36717157Y-43717157D01*
X36630448Y-43846927D01*
X36600000Y-44000000D01*
X36600000Y-54644743D01*
X36423864Y-54381136D01*
X36126163Y-54182219D01*
X36025000Y-54162096D01*
X36025000Y-53067339D01*
X36046550Y-52959000D01*
X35961177Y-52529801D01*
X35945365Y-52506136D01*
X35718056Y-52165944D01*
X35626209Y-52104574D01*
X34225428Y-50703794D01*
X34164056Y-50611944D01*
X33800199Y-50368823D01*
X33479339Y-50305000D01*
X33371000Y-50283450D01*
X33262661Y-50305000D01*
X28760000Y-50305000D01*
X28760000Y-49919578D01*
X28680221Y-49518502D01*
X28376318Y-49063681D01*
X27921497Y-48759779D01*
X27385000Y-48653063D01*
X26848502Y-48759779D01*
X26393681Y-49063682D01*
X26367200Y-49103313D01*
X26278771Y-48658747D01*
X25969343Y-48195657D01*
X25506253Y-47886229D01*
X25097885Y-47805000D01*
X24272115Y-47805000D01*
X23863747Y-47886229D01*
X23400657Y-48195657D01*
X23091229Y-48658747D01*
X22982573Y-49205000D01*
X23091229Y-49751253D01*
X23400657Y-50214343D01*
X23863747Y-50523771D01*
X24272115Y-50605000D01*
X25097885Y-50605000D01*
X25506253Y-50523771D01*
X25969343Y-50214343D01*
X26010000Y-50153496D01*
X26010000Y-50490422D01*
X26031803Y-50600035D01*
X25862219Y-50853837D01*
X25792368Y-51205000D01*
X25792368Y-51605000D01*
X25817232Y-51730000D01*
X25792368Y-51855000D01*
X25792368Y-52255000D01*
X25817232Y-52380000D01*
X25792368Y-52505000D01*
X25792368Y-52905000D01*
X25800641Y-52946592D01*
X25650301Y-53096932D01*
X25460000Y-53556359D01*
X25460000Y-53667500D01*
X25772500Y-53980000D01*
X25911555Y-53980000D01*
X25944964Y-54030000D01*
X25772500Y-54030000D01*
X25460000Y-54342500D01*
X25460000Y-54453641D01*
X25650301Y-54913068D01*
X25859485Y-55122252D01*
X25506253Y-54886229D01*
X25097885Y-54805000D01*
X24272115Y-54805000D01*
X23863747Y-54886229D01*
X23400657Y-55195657D01*
X23091229Y-55658747D01*
X22982573Y-56205000D01*
X23091229Y-56751253D01*
X23400657Y-57214343D01*
X23863747Y-57523771D01*
X24272115Y-57605000D01*
X25097885Y-57605000D01*
X25506253Y-57523771D01*
X25969343Y-57214343D01*
X26278771Y-56751253D01*
X26367200Y-56306687D01*
X26393682Y-56346319D01*
X26848503Y-56650221D01*
X27385000Y-56756937D01*
X27921498Y-56650221D01*
X28376319Y-56346319D01*
X28680221Y-55891497D01*
X28760000Y-55490421D01*
X28760000Y-55268041D01*
X28768068Y-55264699D01*
X29119699Y-54913068D01*
X29310000Y-54453641D01*
X29310000Y-54342500D01*
X28997500Y-54030000D01*
X28825036Y-54030000D01*
X28858445Y-53980000D01*
X28997500Y-53980000D01*
X29172500Y-53805000D01*
X29389366Y-53805000D01*
X30142000Y-54557635D01*
X30142001Y-59454656D01*
X30120450Y-59563000D01*
X30205823Y-59992198D01*
X30205824Y-59992199D01*
X30448945Y-60356056D01*
X30540792Y-60417426D01*
X31784574Y-61661208D01*
X31845944Y-61753056D01*
X32209801Y-61996177D01*
X32638999Y-62081550D01*
X32747338Y-62060000D01*
X33450170Y-62060000D01*
X33211489Y-62285963D01*
X32877330Y-63034108D01*
X32854913Y-63146819D01*
X33137675Y-63475000D01*
X34900000Y-63475000D01*
X34900000Y-63455000D01*
X34950000Y-63455000D01*
X34950000Y-63475000D01*
X34970000Y-63475000D01*
X34970000Y-63525000D01*
X34950000Y-63525000D01*
X34950000Y-65287353D01*
X35278182Y-65570089D01*
X36043486Y-65277356D01*
X36600000Y-64750496D01*
X36600000Y-73600000D01*
X25029143Y-73600000D01*
X25029143Y-69700000D01*
X22400000Y-69700000D01*
X22400000Y-63853181D01*
X32854913Y-63853181D01*
X32877330Y-63965892D01*
X33211489Y-64714037D01*
X33806514Y-65277356D01*
X34571818Y-65570089D01*
X34900000Y-65287353D01*
X34900000Y-63525000D01*
X33137675Y-63525000D01*
X32854913Y-63853181D01*
X22400000Y-63853181D01*
X22400000Y-28107270D01*
X22668657Y-28509342D01*
G36*
X128005857Y-28203000D02*
X130820143Y-28203000D01*
X130820143Y-24400000D01*
X131600000Y-24400000D01*
X131600000Y-43600000D01*
X97000000Y-43600000D01*
X96846927Y-43630448D01*
X96717157Y-43717157D01*
X96630448Y-43846927D01*
X96600000Y-44000000D01*
X96600000Y-54538483D01*
X96494864Y-54381136D01*
X96197163Y-54182219D01*
X95969000Y-54136834D01*
X95969000Y-43796337D01*
X95990550Y-43687999D01*
X95963633Y-43552679D01*
X95906211Y-43264000D01*
X100094661Y-43264000D01*
X100203000Y-43285550D01*
X100311339Y-43264000D01*
X100632199Y-43200177D01*
X100996056Y-42957056D01*
X101057428Y-42865206D01*
X101920209Y-42002426D01*
X102012056Y-41941056D01*
X102255177Y-41577199D01*
X102319000Y-41256339D01*
X102319000Y-41256338D01*
X102340550Y-41148000D01*
X102319000Y-41039661D01*
X102319000Y-40803328D01*
X102320781Y-40800663D01*
X102390632Y-40449500D01*
X102390632Y-39306500D01*
X102320781Y-38955337D01*
X102238099Y-38831595D01*
X102306318Y-38877177D01*
X102313801Y-38882177D01*
X102743000Y-38967550D01*
X102851339Y-38946000D01*
X107294661Y-38946000D01*
X107327865Y-38952605D01*
X107456837Y-39038781D01*
X107808000Y-39108632D01*
X109108000Y-39108632D01*
X109459163Y-39038781D01*
X109756864Y-38839864D01*
X109932839Y-38576498D01*
X116527857Y-38576498D01*
X116552715Y-39002304D01*
X117279308Y-39326526D01*
X118074667Y-39348014D01*
X118817706Y-39063495D01*
X118909285Y-39002304D01*
X118934143Y-38576498D01*
X117731000Y-37373355D01*
X116527857Y-38576498D01*
X109932839Y-38576498D01*
X109955781Y-38542163D01*
X110025632Y-38191000D01*
X110025632Y-37491000D01*
X109955781Y-37139837D01*
X109789514Y-36891000D01*
X109955781Y-36642163D01*
X110025632Y-36291000D01*
X110025632Y-35591000D01*
X109955781Y-35239837D01*
X109756864Y-34942136D01*
X109558000Y-34809260D01*
X109558000Y-34190610D01*
X112281000Y-34190610D01*
X112281000Y-35145390D01*
X112646378Y-36027491D01*
X113321509Y-36702622D01*
X114203610Y-37068000D01*
X115158390Y-37068000D01*
X115775451Y-36812405D01*
X115742474Y-36886308D01*
X115720986Y-37681667D01*
X116005505Y-38424706D01*
X116066696Y-38516285D01*
X116492502Y-38541143D01*
X117695645Y-37338000D01*
X117766355Y-37338000D01*
X118969498Y-38541143D01*
X119131248Y-38531700D01*
X119336350Y-38736802D01*
X119942795Y-38988000D01*
X120599205Y-38988000D01*
X121205650Y-38736802D01*
X121286000Y-38656452D01*
X121366350Y-38736802D01*
X121972795Y-38988000D01*
X122629205Y-38988000D01*
X123235650Y-38736802D01*
X123571000Y-38401452D01*
X123906350Y-38736802D01*
X124512795Y-38988000D01*
X125169205Y-38988000D01*
X125775650Y-38736802D01*
X126239802Y-38272650D01*
X126491000Y-37666205D01*
X126491000Y-37009795D01*
X126239802Y-36403350D01*
X125775650Y-35939198D01*
X125169205Y-35688000D01*
X124512795Y-35688000D01*
X123906350Y-35939198D01*
X123571000Y-36274548D01*
X123235650Y-35939198D01*
X122629205Y-35688000D01*
X121972795Y-35688000D01*
X121366350Y-35939198D01*
X121286000Y-36019548D01*
X121205650Y-35939198D01*
X120599205Y-35688000D01*
X119942795Y-35688000D01*
X119336350Y-35939198D01*
X119131248Y-36144300D01*
X118969498Y-36134857D01*
X117766355Y-37338000D01*
X117695645Y-37338000D01*
X117681503Y-37323858D01*
X117716858Y-37288503D01*
X117731000Y-37302645D01*
X118934143Y-36099502D01*
X118909285Y-35673696D01*
X118182692Y-35349474D01*
X117387333Y-35327986D01*
X116933363Y-35501817D01*
X117081000Y-35145390D01*
X117081000Y-34190610D01*
X126001000Y-34190610D01*
X126001000Y-35145390D01*
X126366378Y-36027491D01*
X127041509Y-36702622D01*
X127923610Y-37068000D01*
X128878390Y-37068000D01*
X129760491Y-36702622D01*
X130435622Y-36027491D01*
X130801000Y-35145390D01*
X130801000Y-34190610D01*
X130435622Y-33308509D01*
X129760491Y-32633378D01*
X128878390Y-32268000D01*
X127923610Y-32268000D01*
X127041509Y-32633378D01*
X126366378Y-33308509D01*
X126001000Y-34190610D01*
X117081000Y-34190610D01*
X116715622Y-33308509D01*
X116040491Y-32633378D01*
X115158390Y-32268000D01*
X114203610Y-32268000D01*
X113321509Y-32633378D01*
X112646378Y-33308509D01*
X112281000Y-34190610D01*
X109558000Y-34190610D01*
X109558000Y-28108338D01*
X109579550Y-27999999D01*
X109494177Y-27570801D01*
X109472810Y-27538823D01*
X109251056Y-27206944D01*
X109159209Y-27145574D01*
X107312428Y-25298794D01*
X107251056Y-25206944D01*
X106887199Y-24963823D01*
X106566339Y-24900000D01*
X106458000Y-24878450D01*
X106349661Y-24900000D01*
X98717904Y-24900000D01*
X98697781Y-24798837D01*
X98498864Y-24501136D01*
X98347503Y-24400000D01*
X128005857Y-24400000D01*
X128005857Y-28203000D01*
X128005857Y-28203000D01*
G37*
X128005857Y-28203000D02*
X130820143Y-28203000D01*
X130820143Y-24400000D01*
X131600000Y-24400000D01*
X131600000Y-43600000D01*
X97000000Y-43600000D01*
X96846927Y-43630448D01*
X96717157Y-43717157D01*
X96630448Y-43846927D01*
X96600000Y-44000000D01*
X96600000Y-54538483D01*
X96494864Y-54381136D01*
X96197163Y-54182219D01*
X95969000Y-54136834D01*
X95969000Y-43796337D01*
X95990550Y-43687999D01*
X95963633Y-43552679D01*
X95906211Y-43264000D01*
X100094661Y-43264000D01*
X100203000Y-43285550D01*
X100311339Y-43264000D01*
X100632199Y-43200177D01*
X100996056Y-42957056D01*
X101057428Y-42865206D01*
X101920209Y-42002426D01*
X102012056Y-41941056D01*
X102255177Y-41577199D01*
X102319000Y-41256339D01*
X102319000Y-41256338D01*
X102340550Y-41148000D01*
X102319000Y-41039661D01*
X102319000Y-40803328D01*
X102320781Y-40800663D01*
X102390632Y-40449500D01*
X102390632Y-39306500D01*
X102320781Y-38955337D01*
X102238099Y-38831595D01*
X102306318Y-38877177D01*
X102313801Y-38882177D01*
X102743000Y-38967550D01*
X102851339Y-38946000D01*
X107294661Y-38946000D01*
X107327865Y-38952605D01*
X107456837Y-39038781D01*
X107808000Y-39108632D01*
X109108000Y-39108632D01*
X109459163Y-39038781D01*
X109756864Y-38839864D01*
X109932839Y-38576498D01*
X116527857Y-38576498D01*
X116552715Y-39002304D01*
X117279308Y-39326526D01*
X118074667Y-39348014D01*
X118817706Y-39063495D01*
X118909285Y-39002304D01*
X118934143Y-38576498D01*
X117731000Y-37373355D01*
X116527857Y-38576498D01*
X109932839Y-38576498D01*
X109955781Y-38542163D01*
X110025632Y-38191000D01*
X110025632Y-37491000D01*
X109955781Y-37139837D01*
X109789514Y-36891000D01*
X109955781Y-36642163D01*
X110025632Y-36291000D01*
X110025632Y-35591000D01*
X109955781Y-35239837D01*
X109756864Y-34942136D01*
X109558000Y-34809260D01*
X109558000Y-34190610D01*
X112281000Y-34190610D01*
X112281000Y-35145390D01*
X112646378Y-36027491D01*
X113321509Y-36702622D01*
X114203610Y-37068000D01*
X115158390Y-37068000D01*
X115775451Y-36812405D01*
X115742474Y-36886308D01*
X115720986Y-37681667D01*
X116005505Y-38424706D01*
X116066696Y-38516285D01*
X116492502Y-38541143D01*
X117695645Y-37338000D01*
X117766355Y-37338000D01*
X118969498Y-38541143D01*
X119131248Y-38531700D01*
X119336350Y-38736802D01*
X119942795Y-38988000D01*
X120599205Y-38988000D01*
X121205650Y-38736802D01*
X121286000Y-38656452D01*
X121366350Y-38736802D01*
X121972795Y-38988000D01*
X122629205Y-38988000D01*
X123235650Y-38736802D01*
X123571000Y-38401452D01*
X123906350Y-38736802D01*
X124512795Y-38988000D01*
X125169205Y-38988000D01*
X125775650Y-38736802D01*
X126239802Y-38272650D01*
X126491000Y-37666205D01*
X126491000Y-37009795D01*
X126239802Y-36403350D01*
X125775650Y-35939198D01*
X125169205Y-35688000D01*
X124512795Y-35688000D01*
X123906350Y-35939198D01*
X123571000Y-36274548D01*
X123235650Y-35939198D01*
X122629205Y-35688000D01*
X121972795Y-35688000D01*
X121366350Y-35939198D01*
X121286000Y-36019548D01*
X121205650Y-35939198D01*
X120599205Y-35688000D01*
X119942795Y-35688000D01*
X119336350Y-35939198D01*
X119131248Y-36144300D01*
X118969498Y-36134857D01*
X117766355Y-37338000D01*
X117695645Y-37338000D01*
X117681503Y-37323858D01*
X117716858Y-37288503D01*
X117731000Y-37302645D01*
X118934143Y-36099502D01*
X118909285Y-35673696D01*
X118182692Y-35349474D01*
X117387333Y-35327986D01*
X116933363Y-35501817D01*
X117081000Y-35145390D01*
X117081000Y-34190610D01*
X126001000Y-34190610D01*
X126001000Y-35145390D01*
X126366378Y-36027491D01*
X127041509Y-36702622D01*
X127923610Y-37068000D01*
X128878390Y-37068000D01*
X129760491Y-36702622D01*
X130435622Y-36027491D01*
X130801000Y-35145390D01*
X130801000Y-34190610D01*
X130435622Y-33308509D01*
X129760491Y-32633378D01*
X128878390Y-32268000D01*
X127923610Y-32268000D01*
X127041509Y-32633378D01*
X126366378Y-33308509D01*
X126001000Y-34190610D01*
X117081000Y-34190610D01*
X116715622Y-33308509D01*
X116040491Y-32633378D01*
X115158390Y-32268000D01*
X114203610Y-32268000D01*
X113321509Y-32633378D01*
X112646378Y-33308509D01*
X112281000Y-34190610D01*
X109558000Y-34190610D01*
X109558000Y-28108338D01*
X109579550Y-27999999D01*
X109494177Y-27570801D01*
X109472810Y-27538823D01*
X109251056Y-27206944D01*
X109159209Y-27145574D01*
X107312428Y-25298794D01*
X107251056Y-25206944D01*
X106887199Y-24963823D01*
X106566339Y-24900000D01*
X106458000Y-24878450D01*
X106349661Y-24900000D01*
X98717904Y-24900000D01*
X98697781Y-24798837D01*
X98498864Y-24501136D01*
X98347503Y-24400000D01*
X128005857Y-24400000D01*
X128005857Y-28203000D01*
G36*
X95501136Y-24501136D02*
X95302219Y-24798837D01*
X95232368Y-25150000D01*
X95232368Y-26850000D01*
X95302219Y-27201163D01*
X95501136Y-27498864D01*
X95798837Y-27697781D01*
X96150000Y-27767632D01*
X97850000Y-27767632D01*
X98201163Y-27697781D01*
X98498864Y-27498864D01*
X98697781Y-27201163D01*
X98717904Y-27100000D01*
X106002366Y-27100000D01*
X107358000Y-28455635D01*
X107358001Y-34809259D01*
X107159136Y-34942136D01*
X106960219Y-35239837D01*
X106890368Y-35591000D01*
X106890368Y-36291000D01*
X106960219Y-36642163D01*
X107029601Y-36746000D01*
X103198635Y-36746000D01*
X101469766Y-35017132D01*
X101473000Y-35017132D01*
X101824163Y-34947281D01*
X102121864Y-34748364D01*
X102320781Y-34450663D01*
X102390632Y-34099500D01*
X102390632Y-32956500D01*
X102320781Y-32605337D01*
X102319000Y-32602672D01*
X102319000Y-30842337D01*
X102340550Y-30733999D01*
X102313896Y-30600000D01*
X102255177Y-30304801D01*
X102012056Y-29940944D01*
X101920206Y-29879572D01*
X101565428Y-29524794D01*
X101504056Y-29432944D01*
X101140199Y-29189823D01*
X100819339Y-29126000D01*
X100711000Y-29104450D01*
X100602661Y-29126000D01*
X98152339Y-29126000D01*
X98044000Y-29104450D01*
X97935661Y-29126000D01*
X85071339Y-29126000D01*
X84963000Y-29104450D01*
X84707767Y-29155219D01*
X84533801Y-29189823D01*
X84169944Y-29432944D01*
X84108574Y-29524792D01*
X82880792Y-30752574D01*
X82788945Y-30813944D01*
X82693395Y-30956945D01*
X82545823Y-31177802D01*
X82460450Y-31607000D01*
X82482001Y-31715344D01*
X82482000Y-35269486D01*
X82433136Y-35302136D01*
X82234219Y-35599837D01*
X82164368Y-35951000D01*
X82164368Y-37201000D01*
X82234219Y-37552163D01*
X82433136Y-37849864D01*
X82482000Y-37882514D01*
X82482001Y-54188791D01*
X82400000Y-54243582D01*
X82400000Y-44000000D01*
X82369552Y-43846927D01*
X82282843Y-43717157D01*
X82153073Y-43630448D01*
X82000000Y-43600000D01*
X81635727Y-43600000D01*
X81707781Y-43492163D01*
X81777632Y-43141000D01*
X81777632Y-41441000D01*
X81707781Y-41089837D01*
X81508864Y-40792136D01*
X81211163Y-40593219D01*
X80860000Y-40523368D01*
X79160000Y-40523368D01*
X78808837Y-40593219D01*
X78511136Y-40792136D01*
X78469643Y-40854234D01*
X78152816Y-40642537D01*
X77642357Y-40541000D01*
X77297643Y-40541000D01*
X76787184Y-40642537D01*
X76208321Y-41029321D01*
X76200000Y-41041774D01*
X76191679Y-41029321D01*
X75612816Y-40642537D01*
X75102357Y-40541000D01*
X74757643Y-40541000D01*
X74247184Y-40642537D01*
X73890958Y-40880559D01*
X73604037Y-40577489D01*
X72855892Y-40243330D01*
X72743181Y-40220913D01*
X72415000Y-40503675D01*
X72415000Y-42266000D01*
X72435000Y-42266000D01*
X72435000Y-42316000D01*
X72415000Y-42316000D01*
X72415000Y-42336000D01*
X72365000Y-42336000D01*
X72365000Y-42316000D01*
X70602647Y-42316000D01*
X70319911Y-42644182D01*
X70612644Y-43409486D01*
X70793006Y-43600000D01*
X66043708Y-43600000D01*
X66064864Y-43585864D01*
X66263781Y-43288163D01*
X66333632Y-42937000D01*
X66333632Y-41937818D01*
X70319911Y-41937818D01*
X70602647Y-42266000D01*
X72365000Y-42266000D01*
X72365000Y-40503675D01*
X72036819Y-40220913D01*
X71924108Y-40243330D01*
X71175963Y-40577489D01*
X70612644Y-41172514D01*
X70319911Y-41937818D01*
X66333632Y-41937818D01*
X66333632Y-41137000D01*
X66263781Y-40785837D01*
X66064864Y-40488136D01*
X65767163Y-40289219D01*
X65416000Y-40219368D01*
X63616000Y-40219368D01*
X63264837Y-40289219D01*
X62967136Y-40488136D01*
X62768219Y-40785837D01*
X62698368Y-41137000D01*
X62698368Y-42937000D01*
X62768219Y-43288163D01*
X62967136Y-43585864D01*
X62988292Y-43600000D01*
X57796720Y-43600000D01*
X58193728Y-43334728D01*
X58591563Y-42739325D01*
X58731264Y-42037000D01*
X58591563Y-41334675D01*
X58193728Y-40739272D01*
X57598325Y-40341437D01*
X57073284Y-40237000D01*
X56718716Y-40237000D01*
X56193675Y-40341437D01*
X55598272Y-40739272D01*
X55200437Y-41334675D01*
X55060736Y-42037000D01*
X55200437Y-42739325D01*
X55598272Y-43334728D01*
X55995280Y-43600000D01*
X42338858Y-43600000D01*
X42409679Y-43552679D01*
X42796463Y-42973816D01*
X42932284Y-42291000D01*
X42796463Y-41608184D01*
X42409679Y-41029321D01*
X42248000Y-40921291D01*
X42248000Y-39986339D01*
X42269550Y-39878000D01*
X42184177Y-39448801D01*
X42116833Y-39348014D01*
X41941056Y-39084944D01*
X41849209Y-39023574D01*
X38954428Y-36128794D01*
X38893056Y-36036944D01*
X38529199Y-35793823D01*
X38208339Y-35730000D01*
X38100000Y-35708450D01*
X37991661Y-35730000D01*
X35009000Y-35730000D01*
X35009000Y-35617000D01*
X35417695Y-35617000D01*
X35858745Y-35434311D01*
X36196311Y-35096745D01*
X36379000Y-34655695D01*
X36379000Y-34178305D01*
X36279000Y-33936884D01*
X36279000Y-32590500D01*
X69728000Y-32590500D01*
X69728000Y-32851640D01*
X69918301Y-33311068D01*
X70269932Y-33662699D01*
X70729359Y-33853000D01*
X71290500Y-33853000D01*
X71603000Y-33540500D01*
X71603000Y-32278000D01*
X71653000Y-32278000D01*
X71653000Y-33540500D01*
X71965500Y-33853000D01*
X72526641Y-33853000D01*
X72986068Y-33662699D01*
X73337699Y-33311068D01*
X73528000Y-32851640D01*
X73528000Y-32590500D01*
X73215500Y-32278000D01*
X71653000Y-32278000D01*
X71603000Y-32278000D01*
X70040500Y-32278000D01*
X69728000Y-32590500D01*
X36279000Y-32590500D01*
X36279000Y-31824634D01*
X36650635Y-31453000D01*
X41801661Y-31453000D01*
X41910000Y-31474550D01*
X42018339Y-31453000D01*
X42339199Y-31389177D01*
X42703056Y-31146056D01*
X42764428Y-31054206D01*
X44389209Y-29429426D01*
X44481056Y-29368056D01*
X44724177Y-29004199D01*
X44788000Y-28683339D01*
X44788000Y-28683338D01*
X44809550Y-28575000D01*
X44788000Y-28466661D01*
X44788000Y-27509830D01*
X45013963Y-27748511D01*
X45762108Y-28082670D01*
X45874819Y-28105087D01*
X46203000Y-27822325D01*
X46203000Y-26060000D01*
X46183000Y-26060000D01*
X46183000Y-26010000D01*
X46203000Y-26010000D01*
X46203000Y-25990000D01*
X46253000Y-25990000D01*
X46253000Y-26010000D01*
X46273000Y-26010000D01*
X46273000Y-26060000D01*
X46253000Y-26060000D01*
X46253000Y-27822325D01*
X46581181Y-28105087D01*
X46693892Y-28082670D01*
X47442037Y-27748511D01*
X47499515Y-27687798D01*
X47566837Y-27732781D01*
X47918000Y-27802632D01*
X49618000Y-27802632D01*
X49969163Y-27732781D01*
X50266864Y-27533864D01*
X50308357Y-27471766D01*
X50625184Y-27683463D01*
X51135643Y-27785000D01*
X51480357Y-27785000D01*
X51990816Y-27683463D01*
X52307643Y-27471766D01*
X52349136Y-27533864D01*
X52646837Y-27732781D01*
X52748000Y-27752904D01*
X52748000Y-28466661D01*
X52726450Y-28575000D01*
X52774939Y-28818771D01*
X52811823Y-29004198D01*
X53054944Y-29368056D01*
X53146794Y-29429428D01*
X54771574Y-31054209D01*
X54832944Y-31146056D01*
X55102250Y-31326000D01*
X55196801Y-31389177D01*
X55626000Y-31474550D01*
X55734339Y-31453000D01*
X69811406Y-31453000D01*
X69728000Y-31654360D01*
X69728000Y-31915500D01*
X70040500Y-32228000D01*
X71603000Y-32228000D01*
X71603000Y-32208000D01*
X71653000Y-32208000D01*
X71653000Y-32228000D01*
X73215500Y-32228000D01*
X73528000Y-31915500D01*
X73528000Y-31654360D01*
X73337699Y-31194932D01*
X73137585Y-30994818D01*
X73195632Y-30703000D01*
X73195632Y-30003000D01*
X73125781Y-29651837D01*
X72926864Y-29354136D01*
X72728000Y-29221260D01*
X72728000Y-27752904D01*
X72829163Y-27732781D01*
X73126864Y-27533864D01*
X73325781Y-27236163D01*
X73395632Y-26885000D01*
X73395632Y-25185000D01*
X73325781Y-24833837D01*
X73126864Y-24536136D01*
X72923122Y-24400000D01*
X95652497Y-24400000D01*
X95501136Y-24501136D01*
X95501136Y-24501136D01*
G37*
X95501136Y-24501136D02*
X95302219Y-24798837D01*
X95232368Y-25150000D01*
X95232368Y-26850000D01*
X95302219Y-27201163D01*
X95501136Y-27498864D01*
X95798837Y-27697781D01*
X96150000Y-27767632D01*
X97850000Y-27767632D01*
X98201163Y-27697781D01*
X98498864Y-27498864D01*
X98697781Y-27201163D01*
X98717904Y-27100000D01*
X106002366Y-27100000D01*
X107358000Y-28455635D01*
X107358001Y-34809259D01*
X107159136Y-34942136D01*
X106960219Y-35239837D01*
X106890368Y-35591000D01*
X106890368Y-36291000D01*
X106960219Y-36642163D01*
X107029601Y-36746000D01*
X103198635Y-36746000D01*
X101469766Y-35017132D01*
X101473000Y-35017132D01*
X101824163Y-34947281D01*
X102121864Y-34748364D01*
X102320781Y-34450663D01*
X102390632Y-34099500D01*
X102390632Y-32956500D01*
X102320781Y-32605337D01*
X102319000Y-32602672D01*
X102319000Y-30842337D01*
X102340550Y-30733999D01*
X102313896Y-30600000D01*
X102255177Y-30304801D01*
X102012056Y-29940944D01*
X101920206Y-29879572D01*
X101565428Y-29524794D01*
X101504056Y-29432944D01*
X101140199Y-29189823D01*
X100819339Y-29126000D01*
X100711000Y-29104450D01*
X100602661Y-29126000D01*
X98152339Y-29126000D01*
X98044000Y-29104450D01*
X97935661Y-29126000D01*
X85071339Y-29126000D01*
X84963000Y-29104450D01*
X84707767Y-29155219D01*
X84533801Y-29189823D01*
X84169944Y-29432944D01*
X84108574Y-29524792D01*
X82880792Y-30752574D01*
X82788945Y-30813944D01*
X82693395Y-30956945D01*
X82545823Y-31177802D01*
X82460450Y-31607000D01*
X82482001Y-31715344D01*
X82482000Y-35269486D01*
X82433136Y-35302136D01*
X82234219Y-35599837D01*
X82164368Y-35951000D01*
X82164368Y-37201000D01*
X82234219Y-37552163D01*
X82433136Y-37849864D01*
X82482000Y-37882514D01*
X82482001Y-54188791D01*
X82400000Y-54243582D01*
X82400000Y-44000000D01*
X82369552Y-43846927D01*
X82282843Y-43717157D01*
X82153073Y-43630448D01*
X82000000Y-43600000D01*
X81635727Y-43600000D01*
X81707781Y-43492163D01*
X81777632Y-43141000D01*
X81777632Y-41441000D01*
X81707781Y-41089837D01*
X81508864Y-40792136D01*
X81211163Y-40593219D01*
X80860000Y-40523368D01*
X79160000Y-40523368D01*
X78808837Y-40593219D01*
X78511136Y-40792136D01*
X78469643Y-40854234D01*
X78152816Y-40642537D01*
X77642357Y-40541000D01*
X77297643Y-40541000D01*
X76787184Y-40642537D01*
X76208321Y-41029321D01*
X76200000Y-41041774D01*
X76191679Y-41029321D01*
X75612816Y-40642537D01*
X75102357Y-40541000D01*
X74757643Y-40541000D01*
X74247184Y-40642537D01*
X73890958Y-40880559D01*
X73604037Y-40577489D01*
X72855892Y-40243330D01*
X72743181Y-40220913D01*
X72415000Y-40503675D01*
X72415000Y-42266000D01*
X72435000Y-42266000D01*
X72435000Y-42316000D01*
X72415000Y-42316000D01*
X72415000Y-42336000D01*
X72365000Y-42336000D01*
X72365000Y-42316000D01*
X70602647Y-42316000D01*
X70319911Y-42644182D01*
X70612644Y-43409486D01*
X70793006Y-43600000D01*
X66043708Y-43600000D01*
X66064864Y-43585864D01*
X66263781Y-43288163D01*
X66333632Y-42937000D01*
X66333632Y-41937818D01*
X70319911Y-41937818D01*
X70602647Y-42266000D01*
X72365000Y-42266000D01*
X72365000Y-40503675D01*
X72036819Y-40220913D01*
X71924108Y-40243330D01*
X71175963Y-40577489D01*
X70612644Y-41172514D01*
X70319911Y-41937818D01*
X66333632Y-41937818D01*
X66333632Y-41137000D01*
X66263781Y-40785837D01*
X66064864Y-40488136D01*
X65767163Y-40289219D01*
X65416000Y-40219368D01*
X63616000Y-40219368D01*
X63264837Y-40289219D01*
X62967136Y-40488136D01*
X62768219Y-40785837D01*
X62698368Y-41137000D01*
X62698368Y-42937000D01*
X62768219Y-43288163D01*
X62967136Y-43585864D01*
X62988292Y-43600000D01*
X57796720Y-43600000D01*
X58193728Y-43334728D01*
X58591563Y-42739325D01*
X58731264Y-42037000D01*
X58591563Y-41334675D01*
X58193728Y-40739272D01*
X57598325Y-40341437D01*
X57073284Y-40237000D01*
X56718716Y-40237000D01*
X56193675Y-40341437D01*
X55598272Y-40739272D01*
X55200437Y-41334675D01*
X55060736Y-42037000D01*
X55200437Y-42739325D01*
X55598272Y-43334728D01*
X55995280Y-43600000D01*
X42338858Y-43600000D01*
X42409679Y-43552679D01*
X42796463Y-42973816D01*
X42932284Y-42291000D01*
X42796463Y-41608184D01*
X42409679Y-41029321D01*
X42248000Y-40921291D01*
X42248000Y-39986339D01*
X42269550Y-39878000D01*
X42184177Y-39448801D01*
X42116833Y-39348014D01*
X41941056Y-39084944D01*
X41849209Y-39023574D01*
X38954428Y-36128794D01*
X38893056Y-36036944D01*
X38529199Y-35793823D01*
X38208339Y-35730000D01*
X38100000Y-35708450D01*
X37991661Y-35730000D01*
X35009000Y-35730000D01*
X35009000Y-35617000D01*
X35417695Y-35617000D01*
X35858745Y-35434311D01*
X36196311Y-35096745D01*
X36379000Y-34655695D01*
X36379000Y-34178305D01*
X36279000Y-33936884D01*
X36279000Y-32590500D01*
X69728000Y-32590500D01*
X69728000Y-32851640D01*
X69918301Y-33311068D01*
X70269932Y-33662699D01*
X70729359Y-33853000D01*
X71290500Y-33853000D01*
X71603000Y-33540500D01*
X71603000Y-32278000D01*
X71653000Y-32278000D01*
X71653000Y-33540500D01*
X71965500Y-33853000D01*
X72526641Y-33853000D01*
X72986068Y-33662699D01*
X73337699Y-33311068D01*
X73528000Y-32851640D01*
X73528000Y-32590500D01*
X73215500Y-32278000D01*
X71653000Y-32278000D01*
X71603000Y-32278000D01*
X70040500Y-32278000D01*
X69728000Y-32590500D01*
X36279000Y-32590500D01*
X36279000Y-31824634D01*
X36650635Y-31453000D01*
X41801661Y-31453000D01*
X41910000Y-31474550D01*
X42018339Y-31453000D01*
X42339199Y-31389177D01*
X42703056Y-31146056D01*
X42764428Y-31054206D01*
X44389209Y-29429426D01*
X44481056Y-29368056D01*
X44724177Y-29004199D01*
X44788000Y-28683339D01*
X44788000Y-28683338D01*
X44809550Y-28575000D01*
X44788000Y-28466661D01*
X44788000Y-27509830D01*
X45013963Y-27748511D01*
X45762108Y-28082670D01*
X45874819Y-28105087D01*
X46203000Y-27822325D01*
X46203000Y-26060000D01*
X46183000Y-26060000D01*
X46183000Y-26010000D01*
X46203000Y-26010000D01*
X46203000Y-25990000D01*
X46253000Y-25990000D01*
X46253000Y-26010000D01*
X46273000Y-26010000D01*
X46273000Y-26060000D01*
X46253000Y-26060000D01*
X46253000Y-27822325D01*
X46581181Y-28105087D01*
X46693892Y-28082670D01*
X47442037Y-27748511D01*
X47499515Y-27687798D01*
X47566837Y-27732781D01*
X47918000Y-27802632D01*
X49618000Y-27802632D01*
X49969163Y-27732781D01*
X50266864Y-27533864D01*
X50308357Y-27471766D01*
X50625184Y-27683463D01*
X51135643Y-27785000D01*
X51480357Y-27785000D01*
X51990816Y-27683463D01*
X52307643Y-27471766D01*
X52349136Y-27533864D01*
X52646837Y-27732781D01*
X52748000Y-27752904D01*
X52748000Y-28466661D01*
X52726450Y-28575000D01*
X52774939Y-28818771D01*
X52811823Y-29004198D01*
X53054944Y-29368056D01*
X53146794Y-29429428D01*
X54771574Y-31054209D01*
X54832944Y-31146056D01*
X55102250Y-31326000D01*
X55196801Y-31389177D01*
X55626000Y-31474550D01*
X55734339Y-31453000D01*
X69811406Y-31453000D01*
X69728000Y-31654360D01*
X69728000Y-31915500D01*
X70040500Y-32228000D01*
X71603000Y-32228000D01*
X71603000Y-32208000D01*
X71653000Y-32208000D01*
X71653000Y-32228000D01*
X73215500Y-32228000D01*
X73528000Y-31915500D01*
X73528000Y-31654360D01*
X73337699Y-31194932D01*
X73137585Y-30994818D01*
X73195632Y-30703000D01*
X73195632Y-30003000D01*
X73125781Y-29651837D01*
X72926864Y-29354136D01*
X72728000Y-29221260D01*
X72728000Y-27752904D01*
X72829163Y-27732781D01*
X73126864Y-27533864D01*
X73325781Y-27236163D01*
X73395632Y-26885000D01*
X73395632Y-25185000D01*
X73325781Y-24833837D01*
X73126864Y-24536136D01*
X72923122Y-24400000D01*
X95652497Y-24400000D01*
X95501136Y-24501136D01*
G36*
X37109136Y-24536136D02*
X36910219Y-24833837D01*
X36890096Y-24935000D01*
X36557339Y-24935000D01*
X36449000Y-24913450D01*
X36340661Y-24935000D01*
X36019801Y-24998823D01*
X35655944Y-25241944D01*
X35594572Y-25333794D01*
X31937792Y-28990574D01*
X31845945Y-29051944D01*
X31711604Y-29253000D01*
X31602823Y-29415802D01*
X31517450Y-29845000D01*
X31539001Y-29953343D01*
X31539000Y-31285000D01*
X30038832Y-31285000D01*
X30364498Y-31220221D01*
X30819319Y-30916319D01*
X31123221Y-30461498D01*
X31229937Y-29925000D01*
X31123221Y-29388502D01*
X30819319Y-28933681D01*
X30779688Y-28907200D01*
X31224252Y-28818771D01*
X31687342Y-28509343D01*
X31996771Y-28046253D01*
X32078000Y-27637885D01*
X32078000Y-26812116D01*
X31996771Y-26403747D01*
X31687343Y-25940657D01*
X31224253Y-25631229D01*
X30678000Y-25522573D01*
X30131748Y-25631229D01*
X29668658Y-25940657D01*
X29359229Y-26403747D01*
X29278000Y-26812115D01*
X29278000Y-27637884D01*
X29359229Y-28046252D01*
X29668657Y-28509342D01*
X29729506Y-28550000D01*
X29392578Y-28550000D01*
X29282965Y-28571803D01*
X29029163Y-28402219D01*
X28678000Y-28332368D01*
X28278000Y-28332368D01*
X28153000Y-28357232D01*
X28028000Y-28332368D01*
X27628000Y-28332368D01*
X27503000Y-28357232D01*
X27378000Y-28332368D01*
X26978000Y-28332368D01*
X26936408Y-28340641D01*
X26786068Y-28190301D01*
X26326641Y-28000000D01*
X26215500Y-28000000D01*
X25903000Y-28312500D01*
X25903000Y-28451555D01*
X25853000Y-28484964D01*
X25853000Y-28312500D01*
X25540500Y-28000000D01*
X25429359Y-28000000D01*
X24969932Y-28190301D01*
X24760746Y-28399487D01*
X24996771Y-28046253D01*
X25078000Y-27637885D01*
X25078000Y-26812116D01*
X24996771Y-26403747D01*
X24687343Y-25940657D01*
X24224253Y-25631229D01*
X23678000Y-25522573D01*
X23131748Y-25631229D01*
X22668658Y-25940657D01*
X22400000Y-26342729D01*
X22400000Y-24400000D01*
X37312878Y-24400000D01*
X37109136Y-24536136D01*
X37109136Y-24536136D01*
G37*
X37109136Y-24536136D02*
X36910219Y-24833837D01*
X36890096Y-24935000D01*
X36557339Y-24935000D01*
X36449000Y-24913450D01*
X36340661Y-24935000D01*
X36019801Y-24998823D01*
X35655944Y-25241944D01*
X35594572Y-25333794D01*
X31937792Y-28990574D01*
X31845945Y-29051944D01*
X31711604Y-29253000D01*
X31602823Y-29415802D01*
X31517450Y-29845000D01*
X31539001Y-29953343D01*
X31539000Y-31285000D01*
X30038832Y-31285000D01*
X30364498Y-31220221D01*
X30819319Y-30916319D01*
X31123221Y-30461498D01*
X31229937Y-29925000D01*
X31123221Y-29388502D01*
X30819319Y-28933681D01*
X30779688Y-28907200D01*
X31224252Y-28818771D01*
X31687342Y-28509343D01*
X31996771Y-28046253D01*
X32078000Y-27637885D01*
X32078000Y-26812116D01*
X31996771Y-26403747D01*
X31687343Y-25940657D01*
X31224253Y-25631229D01*
X30678000Y-25522573D01*
X30131748Y-25631229D01*
X29668658Y-25940657D01*
X29359229Y-26403747D01*
X29278000Y-26812115D01*
X29278000Y-27637884D01*
X29359229Y-28046252D01*
X29668657Y-28509342D01*
X29729506Y-28550000D01*
X29392578Y-28550000D01*
X29282965Y-28571803D01*
X29029163Y-28402219D01*
X28678000Y-28332368D01*
X28278000Y-28332368D01*
X28153000Y-28357232D01*
X28028000Y-28332368D01*
X27628000Y-28332368D01*
X27503000Y-28357232D01*
X27378000Y-28332368D01*
X26978000Y-28332368D01*
X26936408Y-28340641D01*
X26786068Y-28190301D01*
X26326641Y-28000000D01*
X26215500Y-28000000D01*
X25903000Y-28312500D01*
X25903000Y-28451555D01*
X25853000Y-28484964D01*
X25853000Y-28312500D01*
X25540500Y-28000000D01*
X25429359Y-28000000D01*
X24969932Y-28190301D01*
X24760746Y-28399487D01*
X24996771Y-28046253D01*
X25078000Y-27637885D01*
X25078000Y-26812116D01*
X24996771Y-26403747D01*
X24687343Y-25940657D01*
X24224253Y-25631229D01*
X23678000Y-25522573D01*
X23131748Y-25631229D01*
X22668658Y-25940657D01*
X22400000Y-26342729D01*
X22400000Y-24400000D01*
X37312878Y-24400000D01*
X37109136Y-24536136D01*
G04 #@! TD*
M02*
