G04 #@! TF.GenerationSoftware,KiCad,Pcbnew,(5.0.0)*
G04 #@! TF.CreationDate,2018-11-23T00:32:49+07:00*
G04 #@! TF.ProjectId,ext_module,6578745F6D6F64756C652E6B69636164,rev?*
G04 #@! TF.SameCoordinates,Original*
G04 #@! TF.FileFunction,Paste,Bot*
G04 #@! TF.FilePolarity,Positive*
%FSLAX46Y46*%
G04 Gerber Fmt 4.6, Leading zero omitted, Abs format (unit mm)*
G04 Created by KiCad (PCBNEW (5.0.0)) date 11/23/18 00:32:49*
%MOMM*%
%LPD*%
G01*
G04 APERTURE LIST*
%ADD10C,0.200000*%
%ADD11C,0.150000*%
%ADD12R,0.700000X1.300000*%
%ADD13R,0.508000X1.143000*%
G04 APERTURE END LIST*
D10*
X91948000Y-27305000D02*
X97028000Y-27305000D01*
X91948000Y-26035000D02*
X91948000Y-27305000D01*
X79248000Y-26035000D02*
X91948000Y-26035000D01*
X79248000Y-27305000D02*
X79248000Y-26035000D01*
X69088000Y-27305000D02*
X79248000Y-27305000D01*
X66548000Y-27305000D02*
X69088000Y-27305000D01*
X66548000Y-26035000D02*
X66548000Y-27305000D01*
X53848000Y-26035000D02*
X66548000Y-26035000D01*
D11*
X21000000Y-23000000D02*
X21000000Y-75000000D01*
X133000000Y-23000000D02*
X21000000Y-23000000D01*
X133000000Y-45000000D02*
X133000000Y-23000000D01*
X98000000Y-45000000D02*
X133000000Y-45000000D01*
X98000000Y-75000000D02*
X98000000Y-45000000D01*
X81000000Y-75000000D02*
X98000000Y-75000000D01*
X81000000Y-45000000D02*
X81000000Y-75000000D01*
X38000000Y-45000000D02*
X81000000Y-45000000D01*
X38000000Y-75000000D02*
X38000000Y-45000000D01*
X21000000Y-75000000D02*
X38000000Y-75000000D01*
D12*
G04 #@! TO.C,R4.7k1*
X57973000Y-33020000D03*
X56073000Y-33020000D03*
G04 #@! TD*
G04 #@! TO.C,R4.7k2*
X38674000Y-33274000D03*
X40574000Y-33274000D03*
G04 #@! TD*
D13*
G04 #@! TO.C,U1B1*
X50292000Y-31369000D03*
X49022000Y-31369000D03*
X47752000Y-31369000D03*
X46482000Y-31369000D03*
X46482000Y-37719000D03*
X47752000Y-37719000D03*
X49022000Y-37719000D03*
X50292000Y-37719000D03*
G04 #@! TD*
M02*
