M48
;DRILL file {KiCad (5.0.0)} date 11/23/18 00:33:08
;FORMAT={-:-/ absolute / inch / decimal}
FMAT,2
INCH,TZ
T1C0.0157
T2C0.0197
T3C0.0217
T4C0.0354
T5C0.0394
T6C0.0906
%
G90
G05
M72
T1
X0.97Y-2.125
X0.995Y-1.29
X1.07Y-1.065
X1.1024Y-2.3228
X1.385Y-1.355
X1.385Y-1.52
X1.445Y-1.295
X1.76Y-1.32
X3.4646Y-1.2992
T4
X2.24Y-1.655
X2.54Y-1.655
T5
X1.375Y-2.2
X1.375Y-2.3
X1.375Y-2.4
X1.375Y-2.5
X2.12Y-1.025
X3.74Y-2.2
X3.74Y-2.3
X3.74Y-2.4
X3.74Y-2.5
X1.92Y-1.025
X2.02Y-1.025
X1.52Y-1.665
X1.62Y-1.665
X4.6351Y-1.47
X4.7351Y-1.47
X4.815Y-1.47
X4.915Y-1.47
X3.295Y-2.2
X3.295Y-2.3
X3.295Y-2.4
X3.295Y-2.5
X2.72Y-1.025
X2.82Y-1.025
X3.8189Y-1.0236
X2.85Y-1.665
X2.95Y-1.665
X3.05Y-1.665
X3.15Y-1.665
X1.52Y-1.025
X1.62Y-1.025
X1.72Y-1.025
X1.82Y-1.025
T6
X4.515Y-1.3649
X5.0552Y-1.3649
T2
X0.9322Y-1.0591G85X0.9322Y-1.0846
G05
X1.2078Y-1.0591G85X1.2078Y-1.0846
G05
X0.9591Y-1.9372G85X0.9846Y-1.9372
G05
X0.9591Y-2.2128G85X0.9846Y-2.2128
G05
T3
X0.9775Y-1.1781G85X0.9657Y-1.1781
G05
X1.1743Y-1.1781G85X1.1625Y-1.1781
G05
X1.0781Y-1.9707G85X1.0781Y-1.9825
G05
X1.0781Y-2.1675G85X1.0781Y-2.1793
G05
T0
M30
